<svg width="106" height="42" viewBox="0 0 106 42" fill="none" xmlns="http://www.w3.org/2000/svg">
<path d="M103.554 41.9943V24.2544H100.418V41.9943H103.554ZM106 4.49241V1.21215C104.323 1.26959 102.678 1.78662 101.209 2.76323L97.448 5.2737V0H94.398V5.26795L90.6374 2.75749C89.1685 1.78088 87.5286 1.26385 85.8459 1.2064V4.48666C86.9624 4.54411 88.0521 4.89454 89.0296 5.5437L93.6661 8.63439L89.0296 11.7251C88.0521 12.3742 86.9624 12.7247 85.8459 12.7821V16.0624C87.5232 16.0049 89.1685 15.4879 90.6374 14.5113L94.398 12.0008V15.62C94.398 17.3262 93.8264 18.998 92.71 20.2101L92.6833 20.2388L88.6984 24.5244C86.8609 26.5006 85.8459 29.1317 85.8459 31.9294V41.9828H88.9014V35.4682H94.398V41.9828H97.448V12.0123L101.209 14.5228C102.672 15.4994 104.317 16.0164 106 16.0739V12.7936C104.884 12.7362 103.794 12.3857 102.816 11.7366L98.1799 8.64588L102.816 5.55519C103.794 4.90603 104.884 4.54986 106 4.49815V4.49241ZM94.3926 32.1994H88.896V31.9467C88.896 30.0279 89.5905 28.224 90.8511 26.8625L94.3926 23.0538V32.1994ZM99.793 20.3595L101.924 22.6516L104.056 20.3595L101.924 18.0673L99.793 20.3595Z" fill="white"/>
<path d="M78.1058 11.8516H76.5033V21.9796H78.1058V11.8516Z" fill="white"/>
<path d="M46.1486 11.8507L45.0155 13.0693L46.1486 14.288L47.2817 13.0693L46.1486 11.8507Z" fill="white"/>
<path d="M67.0806 33.8365V27.1496H63.4483C62.0862 27.1496 60.7988 27.7183 59.8373 28.7581L57.7434 31.0101C57.7007 31.0561 57.6526 31.102 57.6045 31.148V27.1554H56.002V32.0327C55.7617 32.0901 55.5159 32.1188 55.2649 32.1188H52.8024V27.1554H48.7374C47.3752 27.1554 46.0879 27.7241 45.1264 28.7639L43.3263 30.6999V23.7085H41.7238V31.9005C41.3498 32.0442 40.9599 32.1188 40.5539 32.1188H38.5241V27.1554H36.9216V32.1188H33.7166V23.7085H32.1141V33.8365H40.5486C41.9107 33.8365 43.1981 33.2678 44.1596 32.228L44.245 32.1361V33.8365H55.2595C56.6217 33.8365 57.909 33.2678 58.8705 32.228L58.9506 32.1418V33.8365H67.0753H67.0806ZM46.2588 29.976C46.9212 29.2637 47.8026 28.873 48.7374 28.873H51.1999V32.1131H44.2717L46.2588 29.976ZM60.9698 29.976C61.6321 29.2637 62.5135 28.873 63.4483 28.873H65.4781V32.1131H58.9827L60.9698 29.976Z" fill="white"/>
<path d="M78.1058 23.7085H76.5033V33.8365H78.1058V23.7085Z" fill="white"/>
<path d="M37.7229 23.7096L36.5898 24.9282L37.7229 26.1469L38.8561 24.9282L37.7229 23.7096Z" fill="white"/>
<path d="M13.5974 31.4024L12.4643 32.6211L13.5974 33.8397L14.7306 32.6211L13.5974 31.4024Z" fill="white"/>
<path d="M15.8666 31.4034L14.7335 32.6221L15.8666 33.8407L16.9998 32.6221L15.8666 31.4034Z" fill="white"/>
<path d="M16.041 29.9763L18.135 32.2283C19.1018 33.2681 20.3838 33.8368 21.7459 33.8368H30.5169V32.1134H21.9863L23.9734 29.9763C24.6358 29.264 25.5171 28.8733 26.4519 28.8733H30.5169V27.1499H26.4519C25.0898 27.1499 23.8025 27.7186 22.841 28.7584L20.747 31.0104C20.5227 31.2517 20.277 31.4527 20.0099 31.6193C19.7428 31.4527 19.4917 31.2517 19.2674 31.0104L17.1735 28.7584C16.2066 27.7186 14.9246 27.1499 13.5625 27.1499H9.93016V32.1134H2.45717L2.84711 31.694C3.50413 30.9874 4.39619 30.591 5.32564 30.591H8.32766V28.8676H5.32564C3.96886 28.8676 2.67083 29.4478 1.71467 30.4761L0.00534058 32.3145V33.8368H0.854665L0.908082 33.7794V33.8368H11.5273V28.8733H13.5571C14.4919 28.8733 15.3733 29.264 16.0357 29.9763H16.041Z" fill="white"/>
<path d="M74.8902 33.8369C74.8154 32.4984 74.2972 31.246 73.4052 30.2866L72.9244 29.7696L73.4052 29.2526C74.372 28.2128 74.9008 26.834 74.9008 25.3691V23.7031H73.2983V25.3691C73.2983 26.3744 72.9351 27.3223 72.2727 28.0347L71.792 28.5517L71.3112 28.0347C70.6489 27.3223 70.2856 26.3744 70.2856 25.3691V23.7031H68.6831V25.3691C68.6831 26.834 69.212 28.2185 70.1788 29.2526L70.6596 29.7696L70.1788 30.2866C69.2867 31.246 68.7686 32.4926 68.6938 33.8369H74.8902ZM70.8625 32.1135C70.9961 31.8952 71.1403 31.6941 71.3112 31.5045L71.792 30.9875L72.2727 31.5045C72.4437 31.6884 72.5932 31.8952 72.7214 32.1135H70.8625Z" fill="white"/>
<path d="M12.3873 8.51941L12.4781 8.42175V10.1279H20.5921V3.44678H16.9598C15.5977 3.44678 14.3103 4.01551 13.3488 5.05531L11.2549 7.30726C10.5925 8.01961 9.71115 8.41026 8.77636 8.41026H0.00534058V10.1337H8.77636C10.1385 10.1337 11.4258 9.56496 12.3873 8.52515V8.51941ZM14.4813 6.2732C15.1436 5.56085 16.025 5.17021 16.9598 5.17021H18.9896V8.41026H12.4942L14.4813 6.2732Z" fill="white"/>
<path d="M74.0408 5.16455H78.1058V3.44112H74.0408C72.6787 3.44112 71.3914 4.00985 70.4299 5.04965L68.3359 7.3016C68.2344 7.41075 68.1329 7.50267 68.0261 7.59458C67.9941 7.62331 67.962 7.64629 67.9246 7.67501C67.8445 7.7382 67.759 7.8014 67.6736 7.8531C67.6362 7.87608 67.6041 7.89906 67.5667 7.92204C67.4546 7.99097 67.3424 8.04842 67.2249 8.10587C67.2142 8.10587 67.2088 8.11736 67.1982 8.11736C67.0753 8.17481 66.9418 8.22076 66.8136 8.26098C66.5037 8.35289 66.1832 8.4046 65.8521 8.4046H23.7971V0H22.1946V10.128H78.1058V8.4046H69.5752L71.5623 6.26754C72.2247 5.55519 73.106 5.16455 74.0408 5.16455Z" fill="white"/>
<path d="M45.0196 21.9854H74.9062V11.8574H73.3037V20.2678H57.268C56.9368 20.2678 56.6163 20.2161 56.3065 20.1241C56.1783 20.0839 56.0448 20.038 55.9219 19.9805C55.9112 19.9805 55.9059 19.969 55.8952 19.969C55.7777 19.9173 55.6655 19.8541 55.5533 19.7852C55.5159 19.7622 55.4839 19.7392 55.4465 19.7163C55.361 19.6588 55.2756 19.6014 55.1954 19.5382C55.1634 19.5095 55.1313 19.4865 55.0939 19.4578C54.9871 19.3658 54.8803 19.2682 54.7841 19.1648L52.6902 16.9128C51.7234 15.873 50.4414 15.3043 49.0792 15.3043H45.0142V17.0277H49.0792C50.014 17.0277 50.8954 17.4184 51.5578 18.1307L53.5449 20.2678H45.0142V21.9912L45.0196 21.9854Z" fill="white"/>
<path d="M10.2774 20.2618H5.67819L7.66529 18.1248C8.32766 17.4124 9.20903 17.0218 10.1438 17.0218H10.2774V15.2983H10.1438C8.7817 15.2983 7.49436 15.8671 6.53286 16.9069L4.43892 19.1588C4.00091 19.6299 3.30115 20.2618 2.68152 20.2618H0V21.9853H10.272V20.2618H10.2774Z" fill="white"/>
<path d="M40.57 19.8425L40.9599 20.2619H13.4824V11.8516H11.8799V21.9796H42.5571H43.4064V20.4572L41.6971 18.6189C40.7409 17.5906 39.4375 17.0104 38.0861 17.0104H22.9264L23.498 16.3957C24.1604 15.6833 25.0417 15.2927 25.9765 15.2927H41.7184V13.5692H25.9765C24.6144 13.5692 23.3271 14.138 22.3656 15.1778L20.6616 17.0104V18.7338H38.0861C39.0155 18.7338 39.9076 19.1302 40.5646 19.8368L40.57 19.8425Z" fill="white"/>
<path d="M1.9871 39.5529H1.27132V41.9485H0.721124V39.5529H0.00534058V39.0474H1.9871V39.5529Z" fill="white"/>
<path d="M3.9742 41.9485V40.7248H2.90587V41.9485H2.35567V39.0474H2.90587V40.2193H3.9742V39.0474H4.52439V41.9485H3.9742Z" fill="white"/>
<path d="M6.76255 41.4429V41.9485H5.08527V39.0474H6.76255V39.5529H5.63546V40.225H6.59696V40.7306H5.63546V41.4429H6.76255Z" fill="white"/>
<path d="M8.99002 41.9485H8.43983V40.788C8.00182 40.1101 7.70268 39.5299 7.54778 39.0474H8.11399C8.25822 39.461 8.4612 39.8804 8.7176 40.3055C8.96866 39.8976 9.1663 39.4782 9.31587 39.0474H9.88208C9.71115 39.5472 9.41202 40.1274 8.99002 40.788V41.9485Z" fill="white"/>
<path d="M11.8585 41.4429V41.9485H10.1812V39.0474H11.8585V39.5529H10.7314V40.225H11.6929V40.7306H10.7314V41.4429H11.8585Z" fill="white"/>
<path d="M13.9738 41.9485L13.8135 41.3108H12.82C12.7666 41.5061 12.7132 41.7187 12.6597 41.9485H12.0935C12.4033 40.7363 12.7132 39.7712 13.0283 39.0474H13.5999C13.9257 39.7884 14.2409 40.7593 14.54 41.9485H13.9738ZM13.3114 39.6793C13.2206 39.8918 13.0978 40.271 12.9482 40.8053H13.6693C13.5144 40.248 13.3969 39.8746 13.3114 39.6793Z" fill="white"/>
<path d="M15.5923 40.8683H15.4267V41.9426H14.8712V39.0415H15.6671C15.9983 39.0415 16.26 39.1162 16.447 39.2655C16.634 39.4149 16.7301 39.6275 16.7301 39.9032C16.7301 40.3226 16.5538 40.5811 16.1959 40.6788C16.3135 40.7305 16.4203 40.8569 16.5164 41.0637L16.9117 41.9426H16.3188L15.9502 41.1211C15.9075 41.0292 15.8594 40.966 15.806 40.9258C15.7526 40.8856 15.6831 40.8683 15.5977 40.8683H15.5923ZM15.6404 39.5528H15.4267V40.3743H15.6404C15.9876 40.3743 16.1639 40.2364 16.1639 39.9607C16.1639 39.8113 16.1212 39.7079 16.0303 39.6447C15.9449 39.5815 15.8113 39.5528 15.6351 39.5528H15.6404Z" fill="white"/>
<path d="M20.1808 39.4092C20.3945 39.685 20.5067 40.0469 20.5067 40.495C20.5067 40.9431 20.3998 41.305 20.1808 41.5808C19.9671 41.8565 19.668 41.9944 19.2888 41.9944C18.9095 41.9944 18.6104 41.8565 18.3914 41.5808C18.1723 41.305 18.0655 40.9431 18.0655 40.495C18.0655 40.0469 18.1723 39.685 18.3914 39.4092C18.605 39.1335 18.9042 38.9956 19.2888 38.9956C19.6734 38.9956 19.9671 39.1335 20.1808 39.4092ZM18.7973 39.7826C18.6851 39.955 18.6317 40.1963 18.6317 40.5007C18.6317 40.8052 18.6851 41.0407 18.7973 41.2188C18.9095 41.3912 19.0697 41.4773 19.2834 41.4773C19.4971 41.4773 19.652 41.3912 19.7642 41.2188C19.8763 41.0465 19.9298 40.8052 19.9298 40.5007C19.9298 40.1963 19.8763 39.9607 19.7642 39.7826C19.652 39.6103 19.4917 39.5241 19.2834 39.5241C19.0751 39.5241 18.9095 39.6103 18.7973 39.7826Z" fill="white"/>
<path d="M21.4949 41.9485H20.9447V39.0474H22.5846V39.5529H21.4949V40.3399H22.4136V40.8455H21.4949V41.9485Z" fill="white"/>
<path d="M25.5706 41.9485L25.4103 41.3108H24.4168C24.3633 41.5061 24.3099 41.7187 24.2565 41.9485H23.6903C24.0001 40.7363 24.3099 39.7712 24.6251 39.0474H25.1966C25.5225 39.7884 25.8376 40.7593 26.1368 41.9485H25.5706ZM24.9135 39.6793C24.8227 39.8918 24.6999 40.271 24.5503 40.8053H25.2714C25.1165 40.248 24.999 39.8746 24.9135 39.6793Z" fill="white"/>
<path d="M27.1944 40.8683H27.0288V41.9426H26.4733V39.0415H27.2692C27.6004 39.0415 27.8621 39.1162 28.0491 39.2655C28.236 39.4149 28.3322 39.6275 28.3322 39.9032C28.3322 40.3226 28.1559 40.5811 27.798 40.6788C27.9155 40.7305 28.0224 40.8569 28.1185 41.0637L28.5138 41.9426H27.9209L27.5523 41.1211C27.5096 41.0292 27.4615 40.966 27.4081 40.9258C27.3547 40.8856 27.2852 40.8683 27.1998 40.8683H27.1944ZM27.2372 39.5528H27.0235V40.3743H27.2372C27.5844 40.3743 27.7606 40.2364 27.7606 39.9607C27.7606 39.8113 27.7179 39.7079 27.6271 39.6447C27.5416 39.5815 27.4081 39.5528 27.2318 39.5528H27.2372Z" fill="white"/>
<path d="M30.4368 39.5529H29.721V41.9485H29.1708V39.5529H28.4551V39.0474H30.4368V39.5529Z" fill="white"/>
<path d="M30.8 41.9485V39.0474H31.3502V41.9485H30.8Z" fill="white"/>
<path d="M32.456 41.9485H31.9058V39.0474H33.5457V39.5529H32.456V40.3399H33.3747V40.8455H32.456V41.9485Z" fill="white"/>
<path d="M33.973 41.9485V39.0474H34.5232V41.9485H33.973Z" fill="white"/>
<path d="M36.2325 41.9943C35.8319 41.9943 35.5167 41.8621 35.2977 41.5921C35.0787 41.3279 34.9665 40.9659 34.9665 40.5121C34.9665 40.0583 35.0787 39.6849 35.2977 39.4034C35.5221 39.1276 35.8372 38.9897 36.2539 38.9897C36.4729 38.9897 36.6866 39.0414 36.9056 39.1391L36.7827 39.6389C36.553 39.5527 36.3821 39.5125 36.2592 39.5125C35.7785 39.5125 35.5328 39.8457 35.5328 40.5064C35.5328 41.167 35.7731 41.4657 36.2539 41.4657C36.4355 41.4657 36.6225 41.414 36.8201 41.3049L36.9269 41.8162C36.724 41.9311 36.4943 41.9885 36.2272 41.9885L36.2325 41.9943Z" fill="white"/>
<path d="M37.3329 41.9485V39.0474H37.8831V41.9485H37.3329Z" fill="white"/>
<path d="M40.0999 41.9485L39.9396 41.3108H38.9461C38.8927 41.5061 38.8393 41.7187 38.7858 41.9485H38.2196C38.5294 40.7363 38.8393 39.7712 39.1544 39.0474H39.726C40.0518 39.7884 40.367 40.7593 40.6661 41.9485H40.0999ZM39.4429 39.6793C39.3521 39.8918 39.2292 40.271 39.0796 40.8053H39.8008C39.6458 40.248 39.5283 39.8746 39.4429 39.6793Z" fill="white"/>
<path d="M41.0026 41.9485V39.0474H41.5528V41.4429H42.6425V41.9485H41.0026Z" fill="white"/>
<path d="M43.9512 41.9485V39.0474H44.5014V41.9485H43.9512Z" fill="white"/>
<path d="M45.5644 41.9485H45.0569V39.0474H45.5911C45.9223 39.731 46.3122 40.4204 46.7663 41.1212C46.7556 41.0236 46.7503 40.9029 46.7503 40.7593V39.0474H47.2577V41.9485H46.7235C46.4671 41.5808 46.2535 41.2534 46.0772 40.9776C45.9009 40.6961 45.73 40.3859 45.5537 40.047C45.5644 40.1906 45.5697 40.3572 45.5697 40.541V41.9542L45.5644 41.9485Z" fill="white"/>
<path d="M49.5974 39.5529H48.8816V41.9485H48.3314V39.5529H47.6156V39.0474H49.5974V39.5529Z" fill="white"/>
<path d="M51.6432 41.4429V41.9485H49.9659V39.0474H51.6432V39.5529H50.5161V40.225H51.4776V40.7306H50.5161V41.4429H51.6432Z" fill="white"/>
<path d="M52.0973 41.9485V39.0474H52.6475V41.4429H53.7372V41.9485H52.0973Z" fill="white"/>
<path d="M54.0523 41.9485V39.0474H54.6025V41.4429H55.6922V41.9485H54.0523Z" fill="white"/>
<path d="M56.1035 41.9485V39.0474H56.6537V41.9485H56.1035Z" fill="white"/>
<path d="M59.2765 41.7703C59.004 41.9197 58.7156 42.0001 58.4271 42.0001C58.0105 42.0001 57.6846 41.868 57.4496 41.598C57.2146 41.3337 57.0971 40.9776 57.0971 40.5295C57.0971 40.0814 57.2199 39.7022 57.4603 39.4207C57.7007 39.1392 58.0319 38.9956 58.4485 38.9956C58.7209 38.9956 58.9666 39.0473 59.1803 39.145L59.0575 39.6448C58.8705 39.5643 58.6675 39.5184 58.4592 39.5184C58.1974 39.5184 58.0051 39.6103 57.8716 39.7884C57.7381 39.9665 57.6686 40.2135 57.6686 40.5295C57.6686 40.8282 57.7381 41.058 57.8716 41.2246C58.0051 41.3912 58.1974 41.4716 58.4538 41.4716C58.5607 41.4716 58.6729 41.4601 58.7797 41.4314V40.788H58.3363V40.2997H59.2818V41.7646L59.2765 41.7703Z" fill="white"/>
<path d="M61.4398 41.4429V41.9485H59.7626V39.0474H61.4398V39.5529H60.3128V40.225H61.2743V40.7306H60.3128V41.4429H61.4398Z" fill="white"/>
<path d="M62.4013 41.9485H61.8939V39.0474H62.428C62.7592 39.731 63.1492 40.4204 63.6032 41.1212C63.5925 41.0236 63.5872 40.9029 63.5872 40.7593V39.0474H64.0946V41.9485H63.5605C63.3041 41.5808 63.0904 41.2534 62.9141 40.9776C62.7379 40.6961 62.5669 40.3859 62.3907 40.047C62.4013 40.1906 62.4067 40.3572 62.4067 40.541V41.9542L62.4013 41.9485Z" fill="white"/>
<path d="M65.7986 41.9943C65.398 41.9943 65.0829 41.8621 64.8638 41.5921C64.6448 41.3279 64.5327 40.9659 64.5327 40.5121C64.5327 40.0583 64.6448 39.6849 64.8638 39.4034C65.0882 39.1276 65.4034 38.9897 65.82 38.9897C66.039 38.9897 66.2527 39.0414 66.4717 39.1391L66.3488 39.6389C66.1191 39.5527 65.9482 39.5125 65.8254 39.5125C65.3446 39.5125 65.0989 39.8457 65.0989 40.5064C65.0989 41.167 65.3393 41.4657 65.82 41.4657C66.0016 41.4657 66.1886 41.414 66.3862 41.3049L66.4931 41.8162C66.2901 41.9311 66.0604 41.9885 65.7933 41.9885L65.7986 41.9943Z" fill="white"/>
<path d="M68.5763 41.4429V41.9485H66.899V39.0474H68.5763V39.5529H67.4492V40.225H68.4107V40.7306H67.4492V41.4429H68.5763Z" fill="white"/>
<path d="M71.5302 41.9485H69.7835V41.4659L70.1895 41.0523C70.4299 40.811 70.6008 40.61 70.7023 40.4606C70.8038 40.3112 70.8519 40.1561 70.8519 39.9953C70.8519 39.7425 70.7343 39.6161 70.494 39.6161C70.3391 39.6161 70.1681 39.6851 69.9918 39.8229L69.7568 39.4151C69.9812 39.2197 70.2482 39.1221 70.5634 39.1221C70.8305 39.1221 71.0388 39.1968 71.1884 39.3404C71.3379 39.484 71.4074 39.6851 71.4074 39.9436C71.4074 40.2021 71.3326 40.4319 71.1777 40.6674C71.0228 40.903 70.8091 41.1442 70.542 41.4027L70.4833 41.4602H71.5409V41.9542L71.5302 41.9485Z" fill="white"/>
<path d="M72.871 41.9941C72.6894 41.9941 72.5345 41.9539 72.4009 41.8792C72.2674 41.8045 72.1606 41.7011 72.0858 41.5633C72.0057 41.4311 71.9469 41.276 71.9095 41.1094C71.8721 40.9428 71.8508 40.759 71.8508 40.5579C71.8508 40.3569 71.8721 40.173 71.9095 40.0007C71.9469 39.8341 72.0057 39.679 72.0858 39.5411C72.1659 39.4032 72.2727 39.2998 72.4009 39.2194C72.5345 39.1447 72.6894 39.1045 72.871 39.1045C73.106 39.1045 73.3037 39.1734 73.4586 39.3056C73.6135 39.4434 73.7257 39.61 73.7844 39.8226C73.8485 40.0294 73.8806 40.2707 73.8806 40.5522C73.8806 40.759 73.8646 40.9428 73.8272 41.1094C73.7898 41.276 73.731 41.4254 73.6562 41.5633C73.5815 41.7011 73.4746 41.7988 73.3411 41.8735C73.2075 41.9482 73.0526 41.9826 72.8764 41.9826L72.871 41.9941ZM72.871 41.5001C73.1755 41.5001 73.3251 41.1898 73.3251 40.5637C73.3251 39.9375 73.1755 39.6158 72.871 39.6158C72.5665 39.6158 72.4063 39.9317 72.4063 40.5637C72.4063 41.1956 72.5612 41.5001 72.871 41.5001Z" fill="white"/>
<path d="M75.857 41.9485H74.1103V41.4659L74.5162 41.0523C74.7566 40.811 74.9276 40.61 75.029 40.4606C75.1305 40.3112 75.1786 40.1561 75.1786 39.9953C75.1786 39.7425 75.0611 39.6161 74.8207 39.6161C74.6658 39.6161 74.4949 39.6851 74.3186 39.8229L74.0836 39.4151C74.3079 39.2197 74.575 39.1221 74.8902 39.1221C75.1572 39.1221 75.3656 39.1968 75.5151 39.3404C75.6647 39.484 75.7341 39.6851 75.7341 39.9436C75.7341 40.2021 75.6594 40.4319 75.5044 40.6674C75.3495 40.903 75.1359 41.1442 74.8688 41.4027L74.81 41.4602H75.8677V41.9542L75.857 41.9485Z" fill="white"/>
<path d="M78.1058 41.012C78.1058 41.3165 78.0257 41.5577 77.8601 41.7301C77.6945 41.9082 77.4755 41.9943 77.1871 41.9943C76.8719 41.9943 76.6262 41.8737 76.4499 41.6267C76.2683 41.3797 76.1828 41.0694 76.1828 40.696C76.1828 40.4835 76.2042 40.2824 76.2523 40.0928C76.3004 39.909 76.3698 39.7366 76.4606 39.593C76.5514 39.4437 76.6743 39.3288 76.8345 39.2426C76.9894 39.1564 77.1657 39.1162 77.3687 39.1162C77.5717 39.1162 77.7212 39.1392 77.8548 39.1851L77.7533 39.6505C77.6304 39.6218 77.5183 39.6045 77.4168 39.6045C77.0375 39.6045 76.8132 39.8458 76.7491 40.3226C76.92 40.2077 77.1123 40.1503 77.3206 40.1503C77.5663 40.1503 77.7586 40.2307 77.8975 40.3858C78.0364 40.5467 78.1112 40.7535 78.1112 41.0062L78.1058 41.012ZM77.1924 41.5003C77.3099 41.5003 77.4007 41.4601 77.4648 41.3797C77.5289 41.2992 77.561 41.1901 77.561 41.0579C77.561 40.7879 77.4221 40.6558 77.1497 40.6558C77.0215 40.6558 76.8826 40.696 76.7224 40.7822C76.733 41.0062 76.7758 41.1843 76.8559 41.3107C76.936 41.4371 77.0482 41.506 77.1924 41.506V41.5003Z" fill="white"/>
</svg>
