<svg width="156" height="59" viewBox="0 0 156 59" fill="none" xmlns="http://www.w3.org/2000/svg">
<g clip-path="url(#clip0_42_3079)">
<mask id="mask0_42_3079" style="mask-type:luminance" maskUnits="userSpaceOnUse" x="2" y="41" width="2" height="2">
<path d="M3.23614 41.2743C3.17272 41.2275 3.10371 41.2065 3.01605 41.2065H2.3968C2.31846 41.2065 2.24012 41.2275 2.1767 41.2743C2.10582 41.321 2.07411 41.3887 2.07411 41.4709V42.1287C2.07411 42.1964 2.10582 42.2577 2.16737 42.3045C2.22147 42.3512 2.2998 42.3786 2.39493 42.3786H2.99926C3.09252 42.3786 3.17086 42.3512 3.23428 42.3045C3.28837 42.2577 3.32008 42.1964 3.32008 42.1287V41.4709C3.32008 41.3903 3.28837 41.3226 3.23428 41.2743H3.23614Z" fill="white"/>
</mask>
<g mask="url(#mask0_42_3079)">
<path d="M155.275 0H0.675206V58.6346H155.275V0Z" fill="white"/>
</g>
<mask id="mask1_42_3079" style="mask-type:luminance" maskUnits="userSpaceOnUse" x="0" y="43" width="11" height="9">
<path d="M10.281 45.3853V46.5235C10.281 46.9089 10.2736 47.2684 10.2736 47.6005C10.2661 47.9326 10.2493 48.1906 10.227 48.3792C10.2027 48.4598 10.1729 48.5275 10.1337 48.5823C10.0945 48.6371 10.0162 48.6904 9.89867 48.7307C9.8278 48.7516 9.72707 48.771 9.59278 48.7855C9.46035 48.7919 9.31113 48.8064 9.14513 48.8193C8.97353 48.8322 8.80006 48.8403 8.62846 48.8467H3.26039V49.6254C3.26039 49.8834 3.23614 50.1204 3.19697 50.3364C3.1578 50.5605 3.09438 50.7491 2.9862 50.9055C2.80528 51.1893 2.54788 51.386 2.21027 51.502C1.882 51.6165 1.44181 51.6713 0.900897 51.6713C0.854266 51.6713 0.75168 51.6713 0.595002 51.6584C0.445785 51.652 0.320816 51.6375 0.227556 51.6246C0.134295 51.6117 0.070878 51.5843 0.0466303 51.5569C0.0149217 51.5295 0 51.4891 0 51.4279V50.9071C0 50.7991 0.0783388 50.7379 0.242477 50.7379H0.531585C0.84494 50.7379 1.09488 50.7314 1.29259 50.704C1.4903 50.6766 1.64512 50.6298 1.77008 50.5476C1.88759 50.467 1.97339 50.3445 2.02002 50.1881C2.06665 50.0317 2.0909 49.8157 2.0909 49.5513V44.1858C2.0909 44.1181 2.11515 44.0633 2.16178 44.0165C2.20841 43.9762 2.27183 43.9553 2.3427 43.9553H3.03283C3.09625 43.9553 3.15034 43.9762 3.19697 44.0165C3.2436 44.0633 3.26785 44.1181 3.26785 44.1858V47.8101H8.47179C8.74597 47.8101 8.91757 47.7891 8.98845 47.7488C9.06679 47.7085 9.0985 47.5795 9.0985 47.3699V45.0467C9.09104 44.7759 9.08358 44.4841 9.07425 44.1729C9.07425 44.1052 9.0985 44.0504 9.13767 44.0101C9.17684 43.9633 9.24025 43.9424 9.30927 43.9424H9.98261C10.0684 43.9424 10.1318 43.9633 10.1785 44.0101C10.2251 44.0504 10.2493 44.1052 10.2493 44.1729C10.2568 44.4438 10.2643 44.6743 10.2736 44.863C10.2736 45.0451 10.281 45.2225 10.281 45.3853V45.3853Z" fill="white"/>
</mask>
<g mask="url(#mask1_42_3079)">
<path d="M155.273 0H0V58.6346H155.273V0Z" fill="white"/>
</g>
<mask id="mask2_42_3079" style="mask-type:luminance" maskUnits="userSpaceOnUse" x="7" y="49" width="4" height="3">
<path d="M10.462 50.0462C10.3986 49.9995 10.3202 49.9785 10.2344 49.9785H9.6935C9.6077 49.9785 9.52936 49.9995 9.45848 50.0462C9.38761 50.101 9.3559 50.1607 9.3559 50.2429V50.9007C9.3559 50.962 9.38761 51.0232 9.45848 51.0764C9.52936 51.1232 9.6077 51.1506 9.6935 51.1506H10.2344C10.3202 51.1506 10.3986 51.1232 10.462 51.0764C10.5254 51.0216 10.5646 50.962 10.5646 50.9007V50.2429C10.5646 50.1623 10.5254 50.101 10.462 50.0462ZM8.16589 50.0462C8.1118 49.9995 8.03346 49.9785 7.93834 49.9785H7.38996C7.2967 49.9785 7.21837 49.9995 7.16241 50.0462C7.09899 50.101 7.06915 50.1607 7.06915 50.2429V50.9007C7.06915 50.962 7.10086 51.0232 7.16241 51.0764C7.2165 51.1232 7.29484 51.1506 7.38996 51.1506H7.93834C8.02414 51.1506 8.09501 51.1232 8.16589 51.0764C8.22931 51.0216 8.25915 50.962 8.25915 50.9007V50.2429C8.25915 50.1623 8.22744 50.101 8.16589 50.0462Z" fill="white"/>
</mask>
<g mask="url(#mask2_42_3079)">
<path d="M155.275 0H0.675206V58.6346H155.275V0Z" fill="white"/>
</g>
<mask id="mask3_42_3079" style="mask-type:luminance" maskUnits="userSpaceOnUse" x="0" y="54" width="4" height="5">
<path d="M3.09439 55.7311C3.09439 55.9181 3.05708 56.0745 2.9862 56.2002C2.91346 56.326 2.8146 56.4292 2.68404 56.5066C2.55534 56.5856 2.40426 56.642 2.22893 56.6758C2.0536 56.7097 1.86148 56.7274 1.65258 56.7274C1.57051 56.7274 1.48098 56.7258 1.38399 56.721C1.287 56.7161 1.20679 56.7113 1.13778 56.7049V57.9543C1.13778 57.9785 1.12845 57.9978 1.11167 58.0172C1.09488 58.0365 1.0725 58.0446 1.04452 58.0446H0.766602C0.738624 58.0446 0.716241 58.0349 0.699454 58.0172C0.682667 57.9995 0.673341 57.9785 0.673341 57.9543V54.8524C0.673341 54.7879 0.714376 54.7509 0.796445 54.7412C0.906493 54.7299 1.03892 54.7202 1.19374 54.7138C1.34855 54.7073 1.49963 54.7041 1.65071 54.7041C1.85962 54.7041 2.05173 54.7218 2.22706 54.7557C2.40239 54.7896 2.55347 54.8444 2.68217 54.9201C2.81274 54.9959 2.91159 55.0959 2.98434 55.2184C3.05708 55.3409 3.09252 55.4925 3.09252 55.6698V55.7279L3.09439 55.7311ZM2.62622 55.673C2.62622 55.4473 2.54601 55.2877 2.38934 55.1926C2.23266 55.0975 1.98645 55.0507 1.65258 55.0507C1.57237 55.0507 1.48471 55.0523 1.38399 55.0556C1.2814 55.0588 1.2012 55.0636 1.13964 55.0685V56.3727C1.16949 56.3727 1.20866 56.3727 1.25342 56.3776C1.29819 56.3824 1.34295 56.3824 1.39331 56.3824L1.53134 56.3873C1.57983 56.3905 1.62087 56.3921 1.65444 56.3921C2.00883 56.3921 2.25877 56.3405 2.40612 56.2373C2.55534 56.1341 2.62808 55.9665 2.62808 55.7343V55.6763L2.62622 55.673Z" fill="white"/>
</mask>
<g mask="url(#mask3_42_3079)">
<path d="M155.275 0H0.675207V58.6346H155.275V0Z" fill="white"/>
</g>
<mask id="mask4_42_3079" style="mask-type:luminance" maskUnits="userSpaceOnUse" x="3" y="54" width="4" height="5">
<path d="M6.34172 57.9882C6.34172 58.0269 6.3212 58.0463 6.27457 58.0463H5.94629C5.91645 58.0463 5.89034 58.0447 5.87168 58.0398C5.85303 58.035 5.83251 58.0189 5.81386 57.9882L4.89245 56.663H4.75815C4.67235 56.663 4.59215 56.663 4.51381 56.6614C4.43734 56.6614 4.33102 56.6565 4.19299 56.6501V57.9576C4.19299 57.9818 4.18553 58.0011 4.16688 58.0205C4.15009 58.0382 4.12771 58.0479 4.1016 58.0479H3.82368C3.7957 58.0479 3.77519 58.0382 3.75653 58.0205C3.73975 58.0027 3.73229 57.9818 3.73229 57.9576V54.8428C3.73229 54.8106 3.73975 54.788 3.75653 54.7735C3.77519 54.7606 3.80689 54.7509 3.85539 54.7445C3.91135 54.738 3.97476 54.7332 4.04751 54.7283C4.12212 54.7235 4.19859 54.7203 4.28066 54.717C4.36086 54.7138 4.44293 54.7122 4.525 54.7106C4.60521 54.7106 4.68541 54.709 4.76002 54.709C4.96333 54.709 5.15171 54.7251 5.32891 54.7574C5.50424 54.7896 5.65718 54.8428 5.78588 54.917C5.91458 54.9911 6.0153 55.0895 6.08991 55.2104C6.16266 55.3313 6.19996 55.4828 6.19996 55.665V55.6957C6.19996 55.8198 6.17944 55.9327 6.14027 56.031C6.1011 56.131 6.04515 56.2164 5.97427 56.2906C5.90153 56.3647 5.81573 56.4276 5.71687 56.4776C5.61801 56.5276 5.50797 56.5663 5.39232 56.5937L6.32866 57.9463C6.33985 57.9608 6.34358 57.9737 6.34358 57.9866L6.34172 57.9882ZM5.73366 55.665C5.73366 55.4425 5.65159 55.2878 5.48745 55.2023C5.32145 55.1153 5.07897 55.0733 4.75629 55.0733H4.6164C4.56604 55.0733 4.51381 55.0733 4.45972 55.075C4.40563 55.0766 4.35527 55.0782 4.30864 55.0798C4.26014 55.0798 4.21911 55.083 4.18926 55.0862V56.3051C4.30304 56.3083 4.41122 56.3099 4.51381 56.3115C4.6164 56.3131 4.6966 56.3131 4.75629 56.3131C4.91483 56.3131 5.05472 56.3035 5.17596 56.2841C5.29906 56.2648 5.40165 56.2309 5.48185 56.1842C5.56392 56.1358 5.62734 56.0729 5.67024 55.9955C5.71314 55.9181 5.73366 55.8166 5.73366 55.6957V55.665V55.665Z" fill="white"/>
</mask>
<g mask="url(#mask4_42_3079)">
<path d="M155.275 0H0.675206V58.6346H155.275V0Z" fill="white"/>
</g>
<mask id="mask5_42_3079" style="mask-type:luminance" maskUnits="userSpaceOnUse" x="6" y="54" width="2" height="5">
<path d="M7.46457 57.9556C7.46457 57.9798 7.45711 57.9992 7.43846 58.0185C7.42167 58.0362 7.39929 58.0459 7.37318 58.0459H7.08967C7.06169 58.0459 7.03931 58.0362 7.02252 58.0185C7.00573 58.0008 6.99641 57.9798 6.99641 57.9556V54.8231C6.99641 54.7989 7.00573 54.7796 7.02252 54.7634C7.03931 54.7473 7.06169 54.7393 7.08967 54.7393H7.37318C7.40116 54.7393 7.42167 54.7473 7.43846 54.7634C7.45711 54.7796 7.46457 54.8005 7.46457 54.8231V57.9556Z" fill="white"/>
</mask>
<g mask="url(#mask5_42_3079)">
<path d="M155.275 0H0.675206V58.6346H155.275V0Z" fill="white"/>
</g>
<mask id="mask6_42_3079" style="mask-type:luminance" maskUnits="userSpaceOnUse" x="8" y="54" width="4" height="5">
<path d="M11.0159 57.9173C11.0159 57.9527 11.001 57.9834 10.9712 58.0092C10.9413 58.035 10.9078 58.0462 10.8649 58.0462H10.5459C10.4638 58.0462 10.4079 58.0221 10.3799 57.9753L8.78887 55.3635C8.78141 55.3538 8.77582 55.3506 8.77395 55.3506C8.77209 55.3506 8.77022 55.3555 8.77022 55.3635V57.9624C8.77022 57.9866 8.7609 58.0059 8.74411 58.0221C8.72546 58.0382 8.70494 58.0462 8.67696 58.0462H8.40837C8.38039 58.0462 8.35988 58.043 8.34122 58.0366C8.32444 58.0301 8.31698 58.0156 8.31698 57.993V54.8653C8.31698 54.8299 8.33003 54.8009 8.35988 54.7767C8.38972 54.7525 8.42329 54.7412 8.46619 54.7412H8.7497C8.82245 54.7412 8.87094 54.7477 8.89333 54.7622C8.91757 54.7751 8.93996 54.7993 8.96047 54.8315L10.5422 57.4304L10.5515 57.4433C10.5515 57.4433 10.5571 57.4384 10.5571 57.4304V54.8283C10.5571 54.8041 10.5646 54.7847 10.5813 54.7686C10.6 54.7525 10.6205 54.7444 10.6485 54.7444H10.9208C10.9488 54.7444 10.9712 54.7525 10.988 54.7686C11.0047 54.7847 11.0141 54.8057 11.0141 54.8283V57.9205L11.0159 57.9173Z" fill="white"/>
</mask>
<g mask="url(#mask6_42_3079)">
<path d="M155.275 0H0.675206V58.6346H155.275V0Z" fill="white"/>
</g>
<mask id="mask7_42_3079" style="mask-type:luminance" maskUnits="userSpaceOnUse" x="17" y="35" width="4" height="2">
<path d="M18.4003 35.5107C18.3462 35.4639 18.2679 35.4365 18.1727 35.4365H17.6244C17.5311 35.4365 17.4528 35.4639 17.3894 35.5107C17.3353 35.5574 17.3036 35.6187 17.3036 35.7009V36.3587C17.3036 36.4264 17.3353 36.4812 17.3894 36.5344C17.4528 36.5893 17.5311 36.6151 17.6244 36.6151H18.1727C18.2585 36.6151 18.3294 36.5876 18.3928 36.5344C18.4637 36.4796 18.4954 36.4264 18.4954 36.3587V35.7009C18.4954 35.6203 18.4637 35.5591 18.4022 35.5107H18.4003ZM20.6964 35.5107C20.633 35.4639 20.5546 35.4365 20.4688 35.4365H19.9205C19.8421 35.4365 19.7638 35.4639 19.6929 35.5107C19.622 35.5574 19.5903 35.6187 19.5903 35.7009V36.3587C19.5903 36.4264 19.622 36.4812 19.6929 36.5344C19.7638 36.5893 19.8421 36.6151 19.9205 36.6151H20.4688C20.5546 36.6151 20.633 36.5876 20.6964 36.5344C20.7598 36.4796 20.7896 36.4264 20.7896 36.3587V35.7009C20.7896 35.6203 20.7579 35.5591 20.6964 35.5107Z" fill="white"/>
</mask>
<g mask="url(#mask7_42_3079)">
<path d="M155.275 0H0.675207V58.6346H155.275V0Z" fill="white"/>
</g>
<mask id="mask8_42_3079" style="mask-type:luminance" maskUnits="userSpaceOnUse" x="0" y="28" width="38" height="10">
<path d="M36.588 29.4002C36.1179 28.9665 35.4129 28.7505 34.4728 28.7505C33.5328 28.7505 32.8277 28.9665 32.326 29.4147C31.8242 29.8613 31.5743 30.4981 31.5743 31.3316V32.4892C31.5743 32.6311 31.5594 32.7472 31.5351 32.8407C31.5034 32.9422 31.4493 33.0164 31.371 33.0648C31.2926 33.1196 31.1994 33.1599 31.0968 33.1937C30.9942 33.2276 30.8935 33.2486 30.7909 33.255C30.6883 33.2615 30.6025 33.2679 30.541 33.2679H20.9333C20.8475 33.2679 20.7523 33.2615 20.6442 33.255C20.5266 33.2486 20.4166 33.2341 20.3159 33.2147C20.2058 33.1937 20.1051 33.168 20.0174 33.126C19.9316 33.0922 19.8682 33.0374 19.844 32.9777V29.6453C19.844 29.5776 19.8123 29.5227 19.7656 29.4824C19.7115 29.4357 19.6481 29.4147 19.5773 29.4147H18.9263C18.8554 29.4147 18.7939 29.4357 18.7379 29.4824C18.6913 29.5227 18.6596 29.5776 18.6596 29.6453V32.8213C18.6596 32.9229 18.6279 33.0035 18.557 33.0648C18.4861 33.126 18.4003 33.1728 18.2977 33.2002C18.1951 33.2276 18.0869 33.2469 17.9769 33.255C17.8594 33.2615 17.7568 33.2679 17.6635 33.2679H3.77705V29.6437C3.77705 29.5759 3.7528 29.5211 3.70617 29.4808C3.65954 29.4341 3.59613 29.4131 3.53457 29.4131H2.85191C2.77357 29.4131 2.71015 29.4341 2.66352 29.4808C2.61689 29.5211 2.59264 29.5759 2.59264 29.6437V35.0075C2.59264 35.2783 2.5684 35.4879 2.52177 35.6443C2.47513 35.8071 2.3968 35.9216 2.27183 36.0038C2.15432 36.0844 1.99018 36.1393 1.79433 36.1602C1.59849 36.1876 1.34668 36.2005 1.04265 36.2005H0.744219C0.587541 36.2005 0.509202 36.2553 0.509202 36.3698V36.8922C0.509202 36.947 0.524124 36.9873 0.548372 37.0211C0.58008 37.0485 0.641632 37.0679 0.729297 37.0824C0.822558 37.1034 0.949392 37.1098 1.10607 37.1227C1.25529 37.1292 1.35601 37.1292 1.4045 37.1292C1.94541 37.1292 2.38374 37.0743 2.72134 36.9599C3.04962 36.8519 3.30888 36.6552 3.49727 36.3698C3.59986 36.207 3.66887 36.0183 3.70804 35.8007C3.73975 35.5766 3.76213 35.3396 3.76213 35.0833V34.311H17.4994C17.7587 34.311 18.0552 34.2836 18.3761 34.2304C18.6969 34.1756 18.9711 34.0676 19.2061 33.9128C19.4262 34.0692 19.7004 34.1772 20.0286 34.2304C20.3569 34.2852 20.6703 34.311 20.9612 34.311H30.3097C30.7014 34.311 31.0614 34.2643 31.3915 34.182C31.7198 34.0934 31.9641 33.945 32.1208 33.7274C32.3558 33.9853 32.6692 34.174 33.0683 34.3029C33.46 34.4255 33.9226 34.4932 34.4467 34.4932C35.4577 34.4932 36.187 34.2772 36.6327 33.8435C37.0785 33.4098 37.3061 32.773 37.3061 31.933V31.3171C37.3061 30.4772 37.0636 29.8403 36.5861 29.4002H36.588ZM36.1254 31.8717C36.1254 32.4683 36.0004 32.8939 35.7486 33.1518C35.4987 33.4017 35.0678 33.5307 34.4486 33.5307C34.0103 33.5307 33.6484 33.4694 33.3668 33.3405C33.0851 33.2179 32.8967 32.9745 32.8016 32.623C32.7699 32.4408 32.7475 32.2167 32.7475 31.9588V31.4235C32.7475 30.8673 32.8799 30.4417 33.1467 30.1434C33.4134 29.8516 33.8592 29.7033 34.471 29.7033C35.0828 29.7033 35.5062 29.8516 35.7561 30.1499C36.006 30.4481 36.1254 30.8754 36.1254 31.4235V31.8701V31.8717Z" fill="white"/>
</mask>
<g mask="url(#mask8_42_3079)">
<path d="M155.275 0H0.675206V58.6346H155.275V0Z" fill="white"/>
</g>
<mask id="mask9_42_3079" style="mask-type:luminance" maskUnits="userSpaceOnUse" x="38" y="23" width="8" height="12">
<path d="M38.6117 33.4856C38.6117 33.3405 38.7013 33.2679 38.8785 33.2679H43.9388C44.2092 33.2679 44.3864 33.247 44.4648 33.2067C44.5431 33.1664 44.5841 33.0406 44.5841 32.831V25.439C44.5841 25.3746 44.6065 25.3181 44.6531 25.2698C44.6998 25.2214 44.7595 25.1972 44.8359 25.1972H45.5522C45.6249 25.1972 45.6846 25.2214 45.7275 25.2698C45.7685 25.3181 45.7909 25.3746 45.7909 25.439V32.4312C45.7909 32.7633 45.7872 33.0374 45.7779 33.2551C45.7685 33.4727 45.7555 33.6662 45.7368 33.8371C45.7163 33.9177 45.6902 33.987 45.6529 34.0434C45.6137 34.0999 45.5391 34.1482 45.4272 34.1885C45.3526 34.2127 45.2444 34.2304 45.1045 34.2433C44.9646 34.2562 44.8061 34.2675 44.6289 34.2804C44.4517 34.2933 44.2689 34.3014 44.0824 34.3046C43.8959 34.3078 43.7112 34.3111 43.5359 34.3111H38.8822C38.705 34.3111 38.6155 34.2433 38.6155 34.1047V33.4872L38.6117 33.4856ZM40.1393 25.3907C39.9715 25.3907 39.8875 25.3423 39.8875 25.2456V25.0392C39.8875 24.9586 39.9715 24.9183 40.1393 24.9183H40.3781C40.2941 24.8296 40.2326 24.7232 40.1953 24.5975C40.1561 24.4717 40.1393 24.3492 40.1393 24.2283C40.1393 23.8897 40.255 23.6398 40.4825 23.4834C40.712 23.3254 41.0365 23.248 41.458 23.248C41.5327 23.248 41.6166 23.2513 41.7098 23.2593C41.8031 23.2674 41.8964 23.2803 41.9896 23.2964C42.0922 23.3287 42.1444 23.377 42.1444 23.4415V23.6108C42.1444 23.6995 42.0829 23.7446 41.9616 23.7446C41.9411 23.7446 41.8777 23.743 41.7639 23.7382C41.652 23.7349 41.5718 23.7317 41.5271 23.7317C41.0309 23.7317 40.7828 23.9139 40.7828 24.2766C40.7828 24.4459 40.8164 24.5862 40.8817 24.6942C40.947 24.8038 41.0179 24.8748 41.0925 24.9054H42.0307C42.1892 24.9054 42.2694 24.9538 42.2694 25.0505V25.244C42.2694 25.3085 42.2489 25.3488 42.206 25.3649C42.165 25.381 42.1053 25.3891 42.0307 25.3891H40.1393V25.3907ZM40.49 26.5418C40.49 26.4773 40.5161 26.4209 40.5665 26.3725C40.6187 26.3241 40.6821 26.3 40.7567 26.3H41.4301C41.5028 26.3 41.5625 26.3241 41.6054 26.3725C41.6483 26.4209 41.6688 26.4773 41.6688 26.5418V31.9459C41.6688 32.0991 41.5849 32.1765 41.417 32.1765H40.7586C40.5814 32.1765 40.4919 32.0991 40.4919 31.9459V26.5418H40.49Z" fill="white"/>
</mask>
<g mask="url(#mask9_42_3079)">
<path d="M155.275 0H0.675201V58.6346H155.275V0Z" fill="white"/>
</g>
<mask id="mask10_42_3079" style="mask-type:luminance" maskUnits="userSpaceOnUse" x="48" y="25" width="2" height="10">
<path d="M48.2549 25.4391C48.2549 25.3746 48.281 25.3182 48.3313 25.2698C48.3836 25.2215 48.447 25.1973 48.5216 25.1973H49.208C49.2826 25.1973 49.3423 25.2215 49.3908 25.2698C49.4374 25.3182 49.4617 25.3746 49.4617 25.4391V34.066C49.4617 34.1305 49.4374 34.187 49.3908 34.2353C49.3441 34.2837 49.2845 34.3079 49.208 34.3079H48.5216C48.447 34.3079 48.3836 34.2837 48.3313 34.2353C48.281 34.187 48.2549 34.1305 48.2549 34.066V25.4391Z" fill="white"/>
</mask>
<g mask="url(#mask10_42_3079)">
<path d="M155.275 0H0.675201V58.6346H155.275V0Z" fill="white"/>
</g>
<mask id="mask11_42_3079" style="mask-type:luminance" maskUnits="userSpaceOnUse" x="56" y="26" width="4" height="2">
<path d="M59.6662 26.2646C59.6028 26.2178 59.5245 26.1904 59.4387 26.1904H58.8978C58.812 26.1904 58.7336 26.2178 58.6627 26.2646C58.5919 26.3113 58.5602 26.3791 58.5602 26.4548V27.1126C58.5602 27.1868 58.5919 27.248 58.6627 27.2948C58.7336 27.3416 58.812 27.369 58.8978 27.369H59.4387C59.5245 27.369 59.6028 27.3416 59.6662 27.2948C59.7296 27.248 59.7688 27.1868 59.7688 27.1126V26.4548C59.7688 26.3807 59.7296 26.313 59.6662 26.2646ZM57.3776 26.2646C57.3142 26.2178 57.2359 26.1904 57.1426 26.1904H56.5942C56.501 26.1904 56.4226 26.2178 56.3667 26.2646C56.3033 26.3113 56.2734 26.3791 56.2734 26.4548V27.1126C56.2734 27.1868 56.3051 27.248 56.3667 27.2948C56.4208 27.3416 56.4991 27.369 56.5942 27.369H57.1426C57.2284 27.369 57.2993 27.3416 57.3701 27.2948C57.4336 27.248 57.4634 27.1868 57.4634 27.1126V26.4548C57.4634 26.3807 57.4317 26.313 57.3776 26.2646V26.2646Z" fill="white"/>
</mask>
<g mask="url(#mask11_42_3079)">
<path d="M155.275 0H0.675201V58.6346H155.275V0Z" fill="white"/>
</g>
<mask id="mask12_42_3079" style="mask-type:luminance" maskUnits="userSpaceOnUse" x="55" y="28" width="35" height="7">
<path d="M88.3625 29.4004C87.885 28.9668 87.1799 28.7507 86.2473 28.7507C85.3147 28.7507 84.5929 28.9668 84.093 29.415C83.5913 29.8615 83.3488 30.4984 83.3488 31.3319V32.4894C83.3488 32.6313 83.3339 32.7474 83.3022 32.8409C83.2779 32.9425 83.2238 33.0166 83.1455 33.065C83.0672 33.1198 82.972 33.1601 82.8713 33.194C82.7687 33.2278 82.668 33.2488 82.558 33.2552C82.4554 33.2617 82.377 33.2681 82.308 33.2681H80.1761C80.3178 33.1875 80.4503 33.0715 80.5678 32.9231C80.6778 32.7748 80.7785 32.6055 80.8662 32.4217C80.952 32.246 81.0154 32.0493 81.0621 31.8526C81.1087 31.6495 81.1329 31.4463 81.1329 31.2561V31.0256C81.1329 30.6128 81.0546 30.2598 80.9054 29.955C80.7487 29.6568 80.5286 29.4133 80.247 29.2231C79.9653 29.0329 79.6352 28.8974 79.2435 28.8023C78.8592 28.7136 78.4358 28.6733 77.9733 28.6733C77.6991 28.6733 77.4174 28.6943 77.1339 28.7346C76.8504 28.7749 76.5856 28.8297 76.3188 28.8974C76.0596 28.9652 75.8171 29.0538 75.5989 29.1473C75.3788 29.2489 75.1922 29.3634 75.0356 29.4859C74.8863 29.5875 74.808 29.6955 74.7931 29.7971L74.7782 30.1485C74.7782 30.1824 74.7856 30.2162 74.7856 30.2565C74.7931 30.2968 74.8099 30.3307 74.8248 30.3517L76.1416 33.2649H61.5893C61.2908 33.2649 61.0558 33.2182 60.8767 33.123C60.6958 33.0344 60.61 32.8248 60.61 32.4991V29.0925C60.61 29.0312 60.6026 28.978 60.5708 28.9442C60.5466 28.9103 60.4925 28.8829 60.3974 28.8636C60.2948 28.8426 60.1698 28.8233 60.0374 28.8023C59.8956 28.7814 59.7483 28.762 59.5916 28.7475C59.4349 28.7265 59.2857 28.7136 59.1216 28.7072C58.9649 28.7007 58.8231 28.6943 58.7056 28.6943C58.1722 28.6943 57.6798 28.7491 57.2396 28.8507C56.7919 28.9523 56.4096 29.1086 56.0869 29.3247C55.7661 29.5343 55.5143 29.8116 55.3352 30.1517C55.1636 30.4903 55.0685 30.8966 55.0685 31.377V31.6882C55.0685 32.4733 55.3035 33.0698 55.7735 33.4826C56.2361 33.8953 56.9094 34.0984 57.7805 34.0984H57.9055C58.2972 34.0984 58.6571 34.0646 58.9873 33.984C59.3249 33.9098 59.5674 33.7808 59.724 33.6051C59.8733 33.8631 60.0915 34.0452 60.375 34.1468C60.6641 34.2548 61.0166 34.3096 61.44 34.3096H82.0898C82.4815 34.3096 82.8415 34.2629 83.1641 34.1807C83.4943 34.092 83.7368 33.9437 83.8934 33.726C84.1285 33.984 84.4418 34.1726 84.841 34.3016C85.2401 34.4241 85.7027 34.4918 86.2194 34.4918C87.2303 34.4918 87.9596 34.2758 88.4129 33.8421C88.8605 33.4084 89.0787 32.7716 89.0787 31.9316V31.3158C89.0787 30.4758 88.8437 29.839 88.3662 29.3988L88.3625 29.4004ZM59.4312 32.4556C59.4312 32.5846 59.392 32.6926 59.3137 32.7748C59.2428 32.8635 59.1421 32.9312 59.0246 32.9779C58.8996 33.0247 58.7653 33.0586 58.618 33.0731C58.4688 33.094 58.3195 33.1005 58.1871 33.1005H57.9204C57.3086 33.1005 56.8777 32.965 56.6278 32.6942C56.3779 32.4233 56.251 32.0445 56.251 31.5624V31.3045C56.251 30.9788 56.3051 30.7144 56.4226 30.4984C56.5401 30.2823 56.6968 30.113 56.9001 29.9905C57.096 29.8615 57.3384 29.7809 57.622 29.7261C57.9036 29.6794 58.2095 29.6584 58.5471 29.6584C58.6646 29.6584 58.797 29.6584 58.9388 29.6648C59.0805 29.6777 59.2447 29.6858 59.4331 29.7052V32.4556H59.4312ZM79.9634 31.2771C79.9634 31.772 79.831 32.2057 79.5568 32.5781C79.2826 32.9505 78.8984 33.1811 78.4135 33.2827H77.3783L75.9439 30.1066C76.289 29.9035 76.6564 29.7745 77.0407 29.7213C77.4174 29.66 77.7308 29.6326 77.9733 29.6326C78.5925 29.6326 79.0775 29.7551 79.43 29.9921C79.79 30.2291 79.9634 30.6161 79.9634 31.1497V31.2787V31.2771ZM87.9018 31.8736C87.9018 32.4701 87.7768 32.8957 87.525 33.1537C87.2751 33.4036 86.8349 33.5325 86.2156 33.5325C85.7773 33.5325 85.4155 33.4713 85.1413 33.3423C84.8596 33.2198 84.6712 32.9763 84.578 32.6249C84.5388 32.4427 84.5239 32.2186 84.5239 31.9606V31.4254C84.5239 30.8692 84.6563 30.4435 84.923 30.1453C85.1898 29.8535 85.6281 29.7052 86.2473 29.7052C86.8666 29.7052 87.2825 29.8535 87.5325 30.1517C87.775 30.45 87.8999 30.8772 87.8999 31.4254V31.872L87.9018 31.8736Z" fill="white"/>
</mask>
<g mask="url(#mask12_42_3079)">
<path d="M155.275 0H0.675201V58.6346H155.275V0Z" fill="white"/>
</g>
<mask id="mask13_42_3079" style="mask-type:luminance" maskUnits="userSpaceOnUse" x="96" y="35" width="2" height="2">
<path d="M97.7277 35.5107C97.6643 35.4639 97.586 35.4365 97.5002 35.4365H96.9052C96.8194 35.4365 96.741 35.4639 96.6776 35.5107C96.6142 35.5574 96.575 35.6187 96.575 35.7009V36.3587C96.575 36.4264 96.6142 36.4812 96.6776 36.5344C96.741 36.5893 96.8194 36.6151 96.9052 36.6151H97.5002C97.586 36.6151 97.6643 36.5876 97.7277 36.5344C97.7911 36.4812 97.8303 36.4264 97.8303 36.3587V35.7009C97.8303 35.6203 97.7911 35.5591 97.7277 35.5107Z" fill="white"/>
</mask>
<g mask="url(#mask13_42_3079)">
<path d="M155.275 0H0.675209V58.6346H155.275V0Z" fill="white"/>
</g>
<mask id="mask14_42_3079" style="mask-type:luminance" maskUnits="userSpaceOnUse" x="91" y="25" width="11" height="10">
<path d="M101.481 33.579V34.0191C101.481 34.1078 101.456 34.1755 101.402 34.2287C101.348 34.2835 101.238 34.3093 101.081 34.3093H93.0889C92.7905 34.3093 92.5331 34.2819 92.3055 34.2416C92.078 34.1948 91.8896 34.1126 91.7329 33.9981C91.5688 33.8837 91.4513 33.7273 91.3729 33.5306C91.2946 33.3404 91.2554 33.0905 91.2554 32.7793V25.4373C91.2554 25.376 91.2797 25.3148 91.3263 25.268C91.3804 25.2213 91.4438 25.1938 91.5222 25.1938H92.203C92.2813 25.1938 92.3354 25.2213 92.3913 25.268C92.4305 25.3148 92.4622 25.376 92.4622 25.4373V32.5488C92.4622 32.7116 92.4771 32.8406 92.5256 32.9357C92.5648 33.0244 92.6282 33.0985 92.7066 33.1453C92.7849 33.192 92.8782 33.2259 92.9957 33.2404C93.1132 33.2614 93.2456 33.2678 93.3948 33.2678H100.166L99.6638 32.2247L99.343 31.5814C99.0296 30.972 98.623 30.5109 98.1119 30.2062C97.6027 29.9015 96.9126 29.7516 96.036 29.7516C95.9968 29.7516 95.9334 29.7516 95.855 29.758C95.7767 29.7645 95.6909 29.7645 95.5883 29.779C95.4951 29.7854 95.3925 29.7919 95.2992 29.7919C95.1966 29.7983 95.1108 29.8048 95.0399 29.8128C94.8292 29.8257 94.7266 29.7725 94.7266 29.6436V29.1486C94.7266 29.0809 94.7508 29.0341 94.7807 28.9922C94.8198 28.9584 94.8907 28.931 94.9914 28.9181C95.2022 28.8778 95.4298 28.8439 95.689 28.8294C95.9483 28.8165 96.1591 28.802 96.3232 28.802C96.7932 28.802 97.2316 28.8423 97.64 28.9164C98.056 28.9971 98.4384 29.1405 98.8077 29.3437C99.1677 29.5533 99.5053 29.8306 99.8186 30.1901C100.125 30.5496 100.414 31.0172 100.688 31.5782L100.83 31.8958L101.417 33.1888C101.432 33.2436 101.449 33.3033 101.464 33.3581C101.479 33.4129 101.479 33.4871 101.479 33.5741L101.481 33.579Z" fill="white"/>
</mask>
<g mask="url(#mask14_42_3079)">
<path d="M155.275 0H0.675201V58.6346H155.275V0Z" fill="white"/>
</g>
<mask id="mask15_42_3079" style="mask-type:luminance" maskUnits="userSpaceOnUse" x="13" y="41" width="2" height="2">
<path d="M14.1532 41.2743C14.0991 41.2275 14.0208 41.2065 13.9425 41.2065H13.3232C13.2374 41.2065 13.1665 41.2275 13.0956 41.2743C13.0322 41.321 13.0024 41.3887 13.0024 41.4709V42.1287C13.0024 42.1964 13.0341 42.2577 13.0882 42.3045C13.1516 42.3512 13.2299 42.3786 13.3232 42.3786H13.9275C14.0208 42.3786 14.0991 42.3512 14.1551 42.3045C14.2185 42.2577 14.2483 42.1964 14.2483 42.1287V41.4709C14.2483 41.3903 14.2166 41.3226 14.1551 41.2743H14.1532Z" fill="white"/>
</mask>
<g mask="url(#mask15_42_3079)">
<path d="M155.275 0H0.675206V58.6346H155.275V0Z" fill="white"/>
</g>
<mask id="mask16_42_3079" style="mask-type:luminance" maskUnits="userSpaceOnUse" x="10" y="39" width="17" height="13">
<path d="M26.2435 39.8182C26.1969 39.7714 26.1409 39.7505 26.0626 39.7505H25.3725C25.3016 39.7505 25.24 39.7714 25.1841 39.8182C25.1374 39.8585 25.1057 39.9133 25.1057 39.981V47.3714C25.1057 47.581 25.074 47.71 25.0032 47.7503C24.9323 47.7906 24.7607 47.8116 24.4939 47.8116H21.6887C21.8304 47.7309 21.9554 47.6149 22.0729 47.4665C22.1904 47.3102 22.293 47.1489 22.3788 46.9651C22.4571 46.783 22.528 46.5927 22.5746 46.3896C22.6213 46.1864 22.6455 45.9897 22.6455 45.8011V45.5706C22.6455 45.1578 22.5672 44.7983 22.4105 44.5001C22.2538 44.2018 22.0412 43.9584 21.7595 43.7681C21.4779 43.5779 21.1478 43.436 20.7561 43.3473C20.3718 43.2587 19.941 43.2119 19.4859 43.2119C19.2042 43.2119 18.93 43.2393 18.6484 43.2732C18.3667 43.3135 18.0925 43.3683 17.8333 43.4425C17.574 43.5102 17.3315 43.5908 17.1114 43.6923C16.8913 43.7939 16.7048 43.9019 16.5388 44.0245C16.3896 44.1325 16.3113 44.234 16.3038 44.3437L16.2889 44.6951C16.2889 44.729 16.2889 44.7629 16.2963 44.8032C16.3038 44.8435 16.3113 44.8773 16.3281 44.8983L17.6524 47.8116H14.1887V44.1873C14.1887 44.1196 14.1644 44.0648 14.1178 44.018C14.0711 43.9777 14.0152 43.9567 13.9462 43.9567H13.2635C13.1852 43.9567 13.1218 43.9777 13.0751 44.018C13.0285 44.0648 13.0042 44.1196 13.0042 44.1873V49.5527C13.0042 49.8171 12.9893 50.0332 12.9334 50.1896C12.8942 50.3459 12.8084 50.4669 12.6834 50.5491C12.5659 50.6297 12.4018 50.6781 12.2134 50.7055C12.0101 50.7329 11.7583 50.7393 11.4524 50.7393H11.154C10.9973 50.7393 10.9189 50.8006 10.9189 50.9086V51.4294C10.9189 51.4906 10.9339 51.5309 10.9581 51.5583C10.9898 51.5857 11.0514 51.6131 11.1465 51.626C11.2323 51.6389 11.3573 51.6535 11.5139 51.6599C11.6706 51.6728 11.7639 51.6728 11.8198 51.6728C12.3608 51.6728 12.7916 51.618 13.1292 51.5035C13.4575 51.389 13.7168 51.1924 13.9051 50.907C14.0077 50.7506 14.0767 50.562 14.1159 50.3379C14.1551 50.1219 14.17 49.8849 14.17 49.6269V48.8482H24.6245C24.8054 48.8418 24.977 48.8353 25.1505 48.8208C25.3146 48.8079 25.4713 48.7934 25.6131 48.7869C25.7548 48.774 25.8556 48.7531 25.9339 48.7321C26.0439 48.6918 26.1223 48.637 26.1614 48.5838C26.1932 48.529 26.2249 48.4613 26.2398 48.3807C26.264 48.2791 26.2715 48.1711 26.2864 48.0485C26.2939 47.926 26.3013 47.8051 26.3013 47.6761C26.3088 47.5471 26.3088 47.4182 26.3088 47.2973V39.9826C26.3088 39.9149 26.2845 39.8601 26.2379 39.8198L26.2435 39.8182ZM21.4798 45.8189C21.4798 46.3138 21.3473 46.7475 21.0638 47.1199C20.7896 47.4859 20.4129 47.7229 19.9205 47.818H18.8853L17.4584 44.6484C17.8034 44.4453 18.1634 44.3163 18.5477 44.255C18.9319 44.2002 19.2452 44.1744 19.4877 44.1744C20.107 44.1744 20.5919 44.2889 20.9445 44.5339C21.297 44.7709 21.4779 45.1578 21.4779 45.685V45.8205L21.4798 45.8189Z" fill="white"/>
</mask>
<g mask="url(#mask16_42_3079)">
<path d="M155.275 0H0.675205V58.6346H155.275V0Z" fill="white"/>
</g>
<mask id="mask17_42_3079" style="mask-type:luminance" maskUnits="userSpaceOnUse" x="28" y="39" width="2" height="10">
<path d="M28.7 39.9796C28.7 39.9151 28.7261 39.8587 28.7765 39.8103C28.8287 39.762 28.8921 39.7378 28.9667 39.7378H29.6531C29.7277 39.7378 29.7874 39.762 29.8359 39.8103C29.8825 39.8587 29.9068 39.9151 29.9068 39.9796V48.6066C29.9068 48.6711 29.8825 48.7275 29.8359 48.7759C29.7893 48.8242 29.7296 48.8484 29.6531 48.8484H28.9667C28.8921 48.8484 28.8287 48.8242 28.7765 48.7759C28.7261 48.7275 28.7 48.6711 28.7 48.6066V39.9796V39.9796Z" fill="white"/>
</mask>
<g mask="url(#mask17_42_3079)">
<path d="M155.275 0H0.675205V58.6346H155.275V0Z" fill="white"/>
</g>
<mask id="mask18_42_3079" style="mask-type:luminance" maskUnits="userSpaceOnUse" x="31" y="43" width="18" height="6">
<path d="M48.3668 48.0133V48.6566C48.3668 48.7178 48.3425 48.7646 48.2884 48.7984C48.225 48.8323 48.1635 48.8452 48.0926 48.8452H41.8628C41.5737 48.8452 41.2678 48.8242 40.9302 48.771C40.6019 48.7162 40.3259 48.6082 40.1151 48.4454C39.8801 48.6082 39.5984 48.7162 39.2757 48.771C38.9549 48.8259 38.664 48.8452 38.3991 48.8452H32.091C32.0201 48.8452 31.9492 48.8323 31.8951 48.7904C31.841 48.7565 31.8093 48.7098 31.8093 48.6421V48.0262C31.8093 47.9585 31.841 47.9037 31.8951 47.8634C31.9492 47.8295 32.0201 47.8085 32.091 47.8085H35.9221L35.9072 46.3189C35.8829 45.6079 35.6796 45.0726 35.2879 44.7276C34.8962 44.3826 34.2527 44.2052 33.3686 44.2052C33.266 44.2052 33.1187 44.2117 32.9303 44.2117C32.7344 44.2181 32.5703 44.2246 32.4286 44.2456C32.2402 44.2585 32.1469 44.2053 32.1469 44.0763V43.5749C32.1469 43.5136 32.1712 43.4604 32.2103 43.4185C32.257 43.3782 32.3278 43.3508 32.4304 43.3443C32.6729 43.3105 32.9079 43.2895 33.128 43.2831C33.3481 43.2766 33.5048 43.2702 33.6055 43.2702C34.2322 43.2702 34.7657 43.3443 35.204 43.4943C35.6516 43.6361 36.0042 43.8457 36.269 44.1101C36.5432 44.3745 36.7391 44.6921 36.864 45.0517C36.989 45.4176 37.0673 45.8175 37.0841 46.2576L37.099 47.8085H38.5726C38.6658 47.8085 38.7684 47.8021 38.8785 47.7956C38.9885 47.7892 39.0985 47.7682 39.1993 47.7408C39.3019 47.7134 39.3877 47.6667 39.4585 47.6054C39.5294 47.5441 39.5686 47.4635 39.5686 47.3555V44.1859C39.5686 44.1182 39.5928 44.0634 39.6469 44.0166C39.6935 43.9763 39.757 43.9554 39.8353 43.9554H40.4769C40.5553 43.9554 40.6187 43.9763 40.6653 44.0166C40.7194 44.0634 40.7437 44.1182 40.7437 44.1859V47.5183C40.7754 47.5796 40.8295 47.6328 40.9153 47.6667C41.0085 47.7005 41.1037 47.7344 41.2137 47.7473C41.3237 47.7682 41.4338 47.7876 41.5438 47.794C41.6539 47.8005 41.7546 47.8069 41.8423 47.8069H43.7149C43.534 47.6248 43.3848 47.3797 43.2766 47.0621C43.1666 46.7509 43.1125 46.3721 43.1125 45.9384V45.803C43.1125 45.3757 43.1983 45.0033 43.3624 44.6857C43.5266 44.3665 43.7541 44.1037 44.0432 43.8925C44.3417 43.6829 44.6867 43.5265 45.0859 43.4249C45.4776 43.3234 45.9159 43.2686 46.3785 43.2686C46.5669 43.2686 46.7702 43.275 46.9903 43.2815C47.2103 43.2879 47.4771 43.3153 47.7811 43.3556C47.8837 43.3685 47.962 43.3959 48.0236 43.4233C48.0777 43.4507 48.1019 43.5039 48.1019 43.5862V44.073C48.1019 44.1617 48.0702 44.2149 48.0087 44.2423C47.9378 44.2762 47.8762 44.2826 47.7979 44.2762C47.5629 44.2633 47.3502 44.2488 47.1637 44.2423C46.9828 44.2294 46.7646 44.2294 46.5202 44.2294C45.8301 44.2294 45.2817 44.3584 44.89 44.6228C44.4909 44.8872 44.295 45.3145 44.295 45.9094V46.0577C44.295 46.4849 44.3883 46.8638 44.5767 47.1814C44.7725 47.5071 45.0001 47.7102 45.2743 47.8053H48.0945C48.1653 47.8053 48.2269 47.8182 48.2903 47.8601C48.3444 47.894 48.3686 47.9407 48.3686 48.0085L48.3668 48.0133Z" fill="white"/>
</mask>
<g mask="url(#mask18_42_3079)">
<path d="M155.275 0H0.675203V58.6346H155.275V0Z" fill="white"/>
</g>
<mask id="mask19_42_3079" style="mask-type:luminance" maskUnits="userSpaceOnUse" x="39" y="49" width="2" height="3">
<path d="M40.6 50.0462C40.5366 49.9995 40.4583 49.9785 40.3799 49.9785H39.7756C39.6898 49.9785 39.6115 49.9995 39.5481 50.0462C39.4846 50.101 39.4455 50.1607 39.4455 50.2429V50.9007C39.4455 50.962 39.4846 51.0232 39.5481 51.0764C39.6115 51.1232 39.6898 51.1506 39.7756 51.1506H40.3799C40.4583 51.1506 40.5366 51.1232 40.6 51.0764C40.6709 51.0216 40.7026 50.962 40.7026 50.9007V50.2429C40.7026 50.1623 40.6709 50.101 40.6 50.0462Z" fill="white"/>
</mask>
<g mask="url(#mask19_42_3079)">
<path d="M155.275 0H0.675201V58.6346H155.275V0Z" fill="white"/>
</g>
<mask id="mask20_42_3079" style="mask-type:luminance" maskUnits="userSpaceOnUse" x="56" y="41" width="2" height="3">
<path d="M57.331 42.0673C57.2769 42.0125 57.1986 41.9932 57.1202 41.9932H56.501C56.4152 41.9932 56.3443 42.0141 56.2734 42.0673C56.21 42.1141 56.1801 42.1753 56.1801 42.2576V42.9153C56.1801 42.9895 56.2119 43.0443 56.2659 43.0975C56.3294 43.1443 56.4077 43.1652 56.501 43.1652H57.1034C57.1967 43.1652 57.275 43.1443 57.331 43.0975C57.3944 43.0427 57.4242 42.9895 57.4242 42.9153V42.2576C57.4242 42.177 57.3925 42.1157 57.331 42.0673Z" fill="white"/>
</mask>
<g mask="url(#mask20_42_3079)">
<path d="M155.275 0H0.675201V58.6346H155.275V0Z" fill="white"/>
</g>
<mask id="mask21_42_3079" style="mask-type:luminance" maskUnits="userSpaceOnUse" x="53" y="43" width="12" height="8">
<path d="M64.18 45.3853V46.5235C64.18 46.9089 64.18 47.2684 64.1726 47.6005C64.1726 47.9326 64.1577 48.1906 64.1259 48.3792C64.111 48.4598 64.0793 48.5275 64.0327 48.5823C63.9935 48.6371 63.9152 48.6904 63.8051 48.7307C63.7268 48.7516 63.6242 48.771 63.4992 48.7855C63.3668 48.7919 63.2176 48.8064 63.0441 48.8193C62.88 48.8322 62.7065 48.8403 62.5275 48.8467H60.1773V49.7077C60.1773 49.856 60.1698 49.9995 60.1698 50.1349C60.1624 50.2703 60.1549 50.3928 60.1456 50.4864C60.1456 50.6153 60.043 50.6959 59.8471 50.7362C59.4946 50.804 59.1346 50.8507 58.7579 50.8781C58.3811 50.9055 58.0062 50.9184 57.6369 50.9184C56.8218 50.9184 56.1391 50.8443 55.5833 50.6814C55.0274 50.525 54.5723 50.2945 54.2347 49.9898C53.8897 49.6786 53.6472 49.2982 53.498 48.8516C53.3488 48.405 53.2704 47.8971 53.2704 47.32C53.2704 47.2458 53.2779 47.1442 53.2853 47.0088C53.2928 46.8798 53.3096 46.738 53.3245 46.5816C53.332 46.4252 53.3562 46.2769 53.3711 46.1285C53.3861 45.9802 53.4103 45.8448 53.442 45.7352C53.4569 45.6465 53.4887 45.5868 53.5278 45.553C53.5595 45.5191 53.6304 45.5062 53.7237 45.5062H54.3112C54.4604 45.5062 54.5313 45.5868 54.522 45.7432C54.5071 45.8448 54.4977 45.9464 54.4828 46.0544C54.4679 46.1624 54.4586 46.2704 54.4511 46.38C54.4362 46.4881 54.4362 46.5961 54.4268 46.6912C54.4175 46.7863 54.4194 46.8669 54.4194 46.9346C54.4194 47.3538 54.4586 47.7408 54.5294 48.1003C54.5929 48.4598 54.7402 48.771 54.9771 49.0354C55.2046 49.2998 55.5329 49.5029 55.9563 49.6512C56.3797 49.7996 56.9523 49.8753 57.6574 49.8753C57.8999 49.8753 58.1274 49.8753 58.3233 49.8689C58.5266 49.856 58.7467 49.835 58.9742 49.7947C58.9742 49.5787 58.9817 49.382 58.9817 49.2063C58.9892 49.0305 58.9892 48.8677 58.9892 48.7178V44.1858C58.9892 44.1181 59.0209 44.0633 59.0675 44.0165C59.1216 43.9762 59.1775 43.9553 59.241 43.9553H59.9311C60.0094 43.9553 60.0635 43.9762 60.1027 44.0165C60.1493 44.0633 60.1736 44.1181 60.1736 44.1858V47.8101H62.3671C62.6412 47.8101 62.8147 47.7891 62.893 47.7488C62.9639 47.7085 63.0031 47.5795 63.0031 47.3699V45.819C63.0031 45.5691 63.0031 45.3112 62.9956 45.0467C62.9882 44.7759 62.9882 44.4841 62.9714 44.1729C62.9714 44.1052 62.9956 44.0504 63.0348 44.0101C63.0814 43.9633 63.1374 43.9424 63.2157 43.9424H63.8891C63.9674 43.9424 64.0383 43.9633 64.0849 44.0101C64.1315 44.0504 64.1558 44.1052 64.1558 44.1729C64.1632 44.4438 64.1707 44.6743 64.1707 44.863C64.1782 45.0451 64.1782 45.2225 64.1782 45.3853H64.18Z" fill="white"/>
</mask>
<g mask="url(#mask21_42_3079)">
<path d="M155.275 0H0.675201V58.6346H155.275V0Z" fill="white"/>
</g>
<mask id="mask22_42_3079" style="mask-type:luminance" maskUnits="userSpaceOnUse" x="61" y="49" width="3" height="3">
<path d="M63.0273 50.0462C62.9639 49.9995 62.8949 49.9785 62.8072 49.9785H62.2029C62.1171 49.9785 62.0462 49.9995 61.9754 50.0462C61.9119 50.101 61.8821 50.1607 61.8821 50.2429V50.9007C61.8821 50.962 61.9138 51.0232 61.9754 51.0764C62.0462 51.1232 62.1171 51.1506 62.2029 51.1506H62.8072C62.893 51.1506 62.9639 51.1232 63.0273 51.0764C63.0982 51.0216 63.1299 50.962 63.1299 50.9007V50.2429C63.1299 50.1623 63.0982 50.101 63.0273 50.0462Z" fill="white"/>
</mask>
<g mask="url(#mask22_42_3079)">
<path d="M155.275 0H0.675201V58.6346H155.275V0Z" fill="white"/>
</g>
<mask id="mask23_42_3079" style="mask-type:luminance" maskUnits="userSpaceOnUse" x="69" y="43" width="8" height="9">
<path d="M69.4959 48.9338C69.4959 48.4179 69.6209 48.0422 69.8745 47.8069C70.1263 47.5731 70.4863 47.4393 70.9545 47.407C70.8911 47.278 70.8444 47.1184 70.8221 46.9282C70.7997 46.738 70.7866 46.5509 70.7866 46.3639V45.7336C70.7866 44.9017 71.0384 44.2616 71.5364 43.8134C72.0363 43.3652 72.7544 43.1411 73.6889 43.1411C74.614 43.1411 75.3172 43.3604 75.8003 43.8005C76.2815 44.2406 76.5221 44.8807 76.5221 45.7207V46.3881C76.5221 47.2281 76.289 47.8617 75.8264 48.2905C75.3638 48.7194 74.6364 48.9322 73.6478 48.9322C73.161 48.9322 72.7395 48.8838 72.3795 48.7871C72.0195 48.6903 71.7229 48.5372 71.4879 48.326C71.2081 48.326 70.9992 48.3663 70.865 48.4469C70.7288 48.5275 70.6616 48.7097 70.6616 48.9918V51.681C70.6616 51.7455 70.6393 51.8003 70.5908 51.8454C70.5441 51.889 70.4845 51.9115 70.408 51.9115H69.7496C69.675 51.9115 69.6134 51.889 69.5668 51.8454C69.5201 51.8003 69.4959 51.7455 69.4959 51.681V48.9306V48.9338ZM71.9636 46.3172C71.9636 46.9072 72.0867 47.3313 72.3347 47.5892C72.5809 47.8472 73.0193 47.9761 73.6441 47.9761C74.2615 47.9761 74.698 47.8488 74.9535 47.594C75.2109 47.3393 75.3396 46.9137 75.3396 46.3156V45.8061C75.3396 45.2483 75.2165 44.8243 74.9684 44.5341C74.7222 44.2439 74.2895 44.0972 73.6721 44.0972C73.0547 44.0972 72.6164 44.2423 72.3534 44.5341C72.0923 44.8243 71.9617 45.2499 71.9617 45.8061V46.3156L71.9636 46.3172Z" fill="white"/>
</mask>
<g mask="url(#mask23_42_3079)">
<path d="M155.275 0H0.675201V58.6346H155.275V0Z" fill="white"/>
</g>
<mask id="mask24_42_3079" style="mask-type:luminance" maskUnits="userSpaceOnUse" x="78" y="39" width="24" height="10">
<path d="M101.466 44.6069C101.458 44.3908 101.451 44.1458 101.441 43.8685C101.441 43.8072 101.417 43.754 101.37 43.7056C101.324 43.6589 101.26 43.6379 101.175 43.6379H100.516C100.445 43.6379 100.384 43.6589 100.335 43.7056C100.289 43.7524 100.264 43.8072 100.264 43.8685C100.279 44.4989 100.296 45.1083 100.296 45.6838V47.3976C100.296 47.5056 100.289 47.5943 100.272 47.6475C100.257 47.7088 100.225 47.7491 100.179 47.7765C100.132 47.8039 100.069 47.8232 99.9902 47.8232C99.9119 47.8297 99.8018 47.8297 99.6601 47.8297H99.2124C99.0875 47.8297 98.9625 47.8297 98.8357 47.8168C98.7032 47.8103 98.5764 47.7958 98.4589 47.7765C98.3414 47.7555 98.2388 47.7297 98.1605 47.6959C98.0747 47.6556 98.0187 47.6072 97.9888 47.5395V44.3296C97.9888 44.2683 97.9646 44.2151 97.918 44.1667C97.8713 44.1184 97.8154 44.099 97.737 44.099H97.0935C97.0152 44.099 96.9518 44.12 96.9052 44.1667C96.8511 44.2135 96.8268 44.2683 96.8268 44.3296V47.3976C96.8268 47.4927 96.7877 47.5669 96.7242 47.6282C96.6608 47.683 96.5825 47.7233 96.4967 47.7507C96.4034 47.7845 96.3083 47.8055 96.1982 47.8119C96.0882 47.8248 95.9949 47.8329 95.9166 47.8329H95.6032C95.5174 47.8329 95.4223 47.8329 95.3141 47.82C95.1966 47.8136 95.0866 47.799 94.9765 47.7797C94.8739 47.7587 94.7732 47.7329 94.6874 47.6991C94.6016 47.6588 94.5382 47.6104 94.5158 47.5427V44.7455C94.5158 44.6778 94.4916 44.623 94.445 44.5762C94.3983 44.5295 94.3349 44.5021 94.2566 44.5021H93.6131C93.5347 44.5021 93.4806 44.5295 93.4321 44.5762C93.3855 44.623 93.3613 44.6778 93.3613 44.7455V47.3605C93.3613 47.4685 93.3221 47.5508 93.2512 47.6104C93.1803 47.6717 93.102 47.7184 93.0013 47.7458C92.908 47.7733 92.798 47.7926 92.6879 47.8007C92.5779 47.8071 92.4678 47.8136 92.382 47.8136H90.7835C90.8078 47.7458 90.8302 47.6652 90.8544 47.5637C90.8693 47.4621 90.8861 47.3541 90.8936 47.238C90.901 47.13 90.9085 47.0139 90.9178 46.893C90.9178 46.7785 90.9253 46.6769 90.9253 46.5883V46.3916C90.9253 45.8289 90.8395 45.3485 90.666 44.9551C90.5019 44.5617 90.2594 44.2441 89.9367 43.9926C89.6234 43.7427 89.2317 43.5589 88.7617 43.4509C88.2916 43.3364 87.7582 43.2752 87.1632 43.2752C87.0065 43.2752 86.8032 43.2881 86.5514 43.3026C86.3089 43.3155 86.0347 43.3493 85.7437 43.3977C85.4621 43.4525 85.1637 43.5202 84.8746 43.6137C84.5761 43.7024 84.3113 43.8298 84.0669 43.9797V39.983C84.0669 39.9153 84.0352 39.8605 83.9886 39.8202C83.9345 39.7735 83.8711 39.7525 83.8002 39.7525H83.1101C83.0392 39.7525 82.9776 39.7735 82.9291 39.8202C82.8825 39.8605 82.8583 39.9153 82.8583 39.983V47.8136H80.8121C80.6629 47.8136 80.5305 47.8007 80.413 47.7861C80.2955 47.7733 80.1929 47.7394 80.1145 47.691C80.0362 47.6362 79.9728 47.5685 79.9336 47.475C79.8944 47.3863 79.8702 47.259 79.8702 47.0961V39.9847C79.8702 39.9169 79.8459 39.8621 79.7993 39.8154C79.7527 39.7686 79.6893 39.7412 79.6184 39.7412H78.9283C78.8499 39.7412 78.7865 39.7686 78.7399 39.8154C78.6858 39.8621 78.6615 39.9169 78.6615 39.9847V47.3267C78.6615 47.6314 78.7007 47.8813 78.779 48.078C78.8574 48.2682 78.9824 48.423 79.139 48.5455C79.2957 48.66 79.4916 48.7422 79.7116 48.7889C79.9392 48.8293 80.1966 48.8502 80.495 48.8502H92.2571C92.5462 48.8502 92.8521 48.8293 93.1747 48.7761C93.4881 48.7212 93.7623 48.6132 93.9824 48.4504C94.2025 48.6132 94.4599 48.7212 94.7583 48.7761C95.0567 48.8309 95.3459 48.8502 95.6443 48.8502H95.8793C96.2094 48.8502 96.5135 48.8228 96.797 48.7551C97.0786 48.6938 97.3136 48.5923 97.502 48.4504C97.7445 48.6132 98.0355 48.7212 98.3712 48.768C98.7088 48.8147 99.0446 48.8422 99.3822 48.8422H99.6097C99.9081 48.8422 100.19 48.8293 100.457 48.8083C100.723 48.7873 100.934 48.7615 101.076 48.7196C101.193 48.6793 101.272 48.6309 101.311 48.5713C101.35 48.5165 101.382 48.4423 101.404 48.3553C101.412 48.2601 101.419 48.1521 101.428 48.0296C101.436 47.9071 101.443 47.7862 101.453 47.6572C101.46 47.5346 101.46 47.4073 101.46 47.2912V45.2389C101.46 45.0357 101.46 44.8261 101.453 44.6085L101.466 44.6069ZM89.7502 46.7737C89.7502 47.2074 89.726 47.4847 89.6644 47.6201C89.6103 47.7491 89.5227 47.8168 89.3902 47.8168H84.7906C84.5481 47.8168 84.3131 47.8168 84.0781 47.8103V44.9116C84.274 44.7826 84.509 44.6746 84.7757 44.594C85.0499 44.5198 85.3166 44.4521 85.5908 44.4037C85.865 44.357 86.1242 44.3231 86.3742 44.3086C86.6241 44.2876 86.8368 44.2812 86.9934 44.2812C87.4485 44.2812 87.8552 44.3151 88.2002 44.3828C88.5453 44.4505 88.8269 44.573 89.0619 44.7552C89.2895 44.9309 89.4611 45.1679 89.5786 45.4597C89.6961 45.758 89.7502 46.124 89.7502 46.5705V46.7737V46.7737Z" fill="white"/>
</mask>
<g mask="url(#mask24_42_3079)">
<path d="M155.275 0H0.675201V58.6346H155.275V0Z" fill="white"/>
</g>
<mask id="mask25_42_3079" style="mask-type:luminance" maskUnits="userSpaceOnUse" x="11" y="54" width="4" height="5">
<path d="M14.0432 57.9298C14.0432 57.9573 14.032 57.9766 14.0115 57.9895C13.9909 58.0024 13.9667 58.0121 13.9387 58.0185C13.8828 58.0282 13.8287 58.0363 13.7746 58.0427C13.7186 58.0508 13.6589 58.0556 13.5937 58.0604C13.5284 58.0653 13.4538 58.0685 13.3717 58.0717C13.2896 58.0749 13.1945 58.0766 13.0845 58.0766C12.9259 58.0766 12.7674 58.0556 12.6051 58.0137C12.4447 57.9718 12.2973 57.8992 12.1668 57.7928C12.0362 57.688 11.9318 57.5461 11.8478 57.3704C11.7658 57.1931 11.7247 56.9706 11.7247 56.7013V56.0822C11.7247 55.8098 11.7658 55.5841 11.8478 55.4083C11.9299 55.2326 12.0362 55.0924 12.1668 54.9876C12.2973 54.8844 12.4447 54.8102 12.6051 54.7699C12.7674 54.728 12.9259 54.707 13.0845 54.707C13.243 54.707 13.4053 54.7151 13.5564 54.7312C13.7056 54.7473 13.8361 54.7635 13.9499 54.778C14.0059 54.7844 14.032 54.8038 14.032 54.836V55.0633C14.032 55.0778 14.0283 55.0907 14.0208 55.0988C14.0152 55.1085 13.9965 55.1117 13.9686 55.1117H13.9536L13.7839 55.0988C13.7149 55.0956 13.644 55.0924 13.5657 55.0875C13.4892 55.0827 13.409 55.0795 13.3269 55.0762C13.2449 55.073 13.1665 55.0714 13.0901 55.0714C12.9632 55.0714 12.8476 55.0891 12.7375 55.123C12.6275 55.1568 12.5361 55.2133 12.454 55.2923C12.3738 55.3713 12.3104 55.4744 12.2638 55.6034C12.2171 55.7324 12.1929 55.892 12.1929 56.0822V56.7013C12.1929 56.8884 12.2153 57.0464 12.2638 57.1753C12.3104 57.3043 12.3719 57.4075 12.454 57.4865C12.5342 57.5655 12.6293 57.6219 12.7375 57.6574C12.8457 57.6929 12.9632 57.7106 13.0901 57.7106C13.1628 57.7106 13.2393 57.7106 13.3232 57.7057L13.5582 57.6961C13.6347 57.6929 13.7056 57.6896 13.769 57.6848C13.8343 57.68 13.8921 57.6767 13.9387 57.6735H13.9592C14.0152 57.6735 14.0413 57.6977 14.0413 57.7444V57.9266L14.0432 57.9298Z" fill="white"/>
</mask>
<g mask="url(#mask25_42_3079)">
<path d="M155.275 0H0.675206V58.6346H155.275V0Z" fill="white"/>
</g>
<mask id="mask26_42_3079" style="mask-type:luminance" maskUnits="userSpaceOnUse" x="14" y="54" width="3" height="5">
<path d="M16.7757 57.9931C16.7757 58.0076 16.772 58.0205 16.7626 58.0334C16.7533 58.0463 16.7421 58.0527 16.7235 58.0559C16.675 58.0624 16.6097 58.0656 16.5276 58.0672C16.4456 58.0672 16.356 58.0704 16.2628 58.0737C16.1676 58.0769 16.0725 58.0785 15.9774 58.0785H15.72C15.3563 58.0785 15.0821 58.014 14.8993 57.8867C14.7165 57.7593 14.6233 57.5465 14.6233 57.2498V55.5361C14.6233 55.2394 14.7146 55.0266 14.8993 54.9008C15.0821 54.7735 15.3563 54.709 15.72 54.709H15.9718L16.2553 54.7187C16.3467 54.7187 16.4344 54.7219 16.5164 54.7283L16.7235 54.738C16.7403 54.7412 16.7533 54.7477 16.7626 54.7606C16.772 54.7735 16.7757 54.7864 16.7757 54.8009V55.0234C16.7757 55.0588 16.7571 55.0766 16.7197 55.0766H15.7256C15.5894 55.0766 15.4794 55.0846 15.3973 55.1008C15.3152 55.1169 15.2518 55.1443 15.2071 55.1814C15.1604 55.2184 15.1325 55.2668 15.1175 55.3265C15.1026 55.3861 15.0952 55.457 15.0952 55.5393V56.1584H16.675C16.703 56.1584 16.7272 56.168 16.7477 56.1858C16.7682 56.2035 16.7776 56.2245 16.7776 56.2487V56.4179C16.7776 56.4421 16.7682 56.4615 16.7477 56.4808C16.7272 56.4985 16.703 56.5082 16.675 56.5082H15.0952V57.2563C15.0952 57.3417 15.1026 57.4143 15.1175 57.4723C15.1325 57.5304 15.1623 57.5771 15.2071 57.6142C15.2518 57.6513 15.3134 57.6787 15.3973 57.6948C15.4813 57.7109 15.5894 57.719 15.7256 57.719H16.7197C16.7589 57.719 16.7757 57.7367 16.7757 57.7722V57.9995V57.9931Z" fill="white"/>
</mask>
<g mask="url(#mask26_42_3079)">
<path d="M155.275 0H0.675206V58.6346H155.275V0Z" fill="white"/>
</g>
<mask id="mask27_42_3079" style="mask-type:luminance" maskUnits="userSpaceOnUse" x="18" y="54" width="3" height="5">
<path d="M20.9053 57.1867C20.9053 57.2931 20.8866 57.3995 20.8493 57.5075C20.8102 57.6139 20.7449 57.7106 20.6497 57.7945C20.5565 57.8799 20.4259 57.9476 20.2618 57.9992C20.0976 58.0508 19.8887 58.0766 19.6351 58.0766C19.4523 58.0766 19.2937 58.0702 19.1557 58.0573C19.0196 58.0444 18.8946 58.0299 18.7808 58.0153C18.736 58.0089 18.7081 58.0008 18.6987 57.9879C18.6894 57.975 18.6838 57.9589 18.6838 57.9347V57.7574C18.6838 57.7332 18.6931 57.7155 18.7099 57.7042C18.7267 57.6929 18.7472 57.6864 18.7715 57.6864H18.7864C18.8442 57.6929 18.9095 57.6977 18.986 57.6993C19.0587 57.7026 19.1352 57.7058 19.2098 57.709L19.4355 57.7139H19.6351C19.7899 57.7139 19.9186 57.701 20.0193 57.6768C20.12 57.6526 20.2002 57.6155 20.2581 57.5704C20.3159 57.5252 20.3569 57.4688 20.3812 57.4027C20.4035 57.3382 20.4166 57.2657 20.4166 57.1899C20.4166 57.1335 20.4073 57.0819 20.3868 57.0367C20.3662 56.99 20.3308 56.9464 20.2842 56.9013C20.2375 56.8578 20.1723 56.8094 20.0921 56.761C20.0137 56.7127 19.9167 56.6562 19.7992 56.595L19.2993 56.3322C19.0625 56.2081 18.8853 56.0823 18.7659 55.9565C18.6484 55.8308 18.5887 55.6792 18.5887 55.5003C18.5887 55.231 18.695 55.0311 18.9095 54.9038C19.1221 54.7764 19.4262 54.7119 19.8197 54.7119C19.8962 54.7119 19.9764 54.7135 20.0603 54.7168C20.1443 54.72 20.2263 54.7232 20.3066 54.728C20.3868 54.7329 20.4651 54.7393 20.536 54.7458C20.6087 54.7538 20.6684 54.7603 20.715 54.7667C20.7747 54.7764 20.8046 54.8006 20.8046 54.8425V55.0344C20.8046 55.0811 20.7747 55.1053 20.715 55.1053H20.7057C20.5919 55.0988 20.4539 55.094 20.2916 55.0876C20.1275 55.0811 19.9708 55.0779 19.8197 55.0779C19.5511 55.0779 19.359 55.1069 19.2415 55.1666C19.124 55.2262 19.0643 55.3375 19.0643 55.5003C19.0643 55.6035 19.1091 55.6954 19.1967 55.7711C19.2863 55.8485 19.4299 55.9372 19.6239 56.0388L20.0976 56.2838C20.245 56.3612 20.37 56.4354 20.4726 56.5063C20.577 56.5772 20.6609 56.6482 20.7244 56.7207C20.7896 56.7917 20.8363 56.8658 20.8642 56.9432C20.8922 57.0206 20.9053 57.1028 20.9053 57.1931V57.1867Z" fill="white"/>
</mask>
<g mask="url(#mask27_42_3079)">
<path d="M155.275 0H0.675207V58.6346H155.275V0Z" fill="white"/>
</g>
<mask id="mask28_42_3079" style="mask-type:luminance" maskUnits="userSpaceOnUse" x="21" y="54" width="4" height="5">
<path d="M24.1787 57.9753C24.1787 58.0221 24.1489 58.0463 24.0892 58.0463H23.787C23.7628 58.0463 23.7441 58.0398 23.7311 58.0253C23.718 58.0124 23.7068 57.9963 23.7012 57.9786L23.3655 56.9548H22.0319L21.7036 57.9786C21.6961 57.9963 21.6849 58.0124 21.6663 58.0253C21.6495 58.0382 21.6308 58.0463 21.6103 58.0463H21.3082C21.2503 58.0463 21.2205 58.0221 21.2205 57.9753C21.2205 57.9608 21.2205 57.9495 21.2242 57.9447L22.1755 55.0475C22.196 54.9798 22.2259 54.9234 22.265 54.8799C22.3042 54.8363 22.349 54.8025 22.3975 54.7783C22.4459 54.7541 22.4963 54.7348 22.5485 54.7251C22.6026 54.7154 22.653 54.709 22.6996 54.709C22.7462 54.709 22.7985 54.7138 22.8488 54.7219C22.9011 54.7299 22.9496 54.7477 22.998 54.7735C23.0465 54.7993 23.0894 54.8331 23.1305 54.8767C23.1696 54.9202 23.2014 54.975 23.22 55.0427L24.1713 57.9447C24.1713 57.9447 24.1769 57.9608 24.1769 57.9753H24.1787ZM22.7985 55.1411C22.7817 55.0879 22.75 55.0604 22.6996 55.0604C22.6493 55.0604 22.6138 55.0879 22.597 55.1411L22.1289 56.6049H23.2666L22.7985 55.1411V55.1411Z" fill="white"/>
</mask>
<g mask="url(#mask28_42_3079)">
<path d="M155.275 0H0.675207V58.6346H155.275V0Z" fill="white"/>
</g>
<mask id="mask29_42_3079" style="mask-type:luminance" maskUnits="userSpaceOnUse" x="24" y="54" width="3" height="5">
<path d="M26.721 55.0149C26.721 55.0633 26.6893 55.0859 26.6222 55.0859H25.6205V57.9556C25.6205 57.9798 25.6112 57.9992 25.5944 58.0185C25.5776 58.0378 25.5553 58.0459 25.5273 58.0459H25.2438C25.2158 58.0459 25.1953 58.0362 25.1766 58.0185C25.1598 58.0008 25.1524 57.9798 25.1524 57.9556V55.0859H24.1489C24.1209 55.0859 24.0967 55.0794 24.0761 55.0682C24.0556 55.0569 24.0444 55.0391 24.0444 55.0149V54.8199C24.0444 54.7957 24.0556 54.7763 24.0761 54.7618C24.0967 54.7473 24.1209 54.7393 24.1489 54.7393H26.624C26.6893 54.7393 26.7229 54.7667 26.7229 54.8199V55.0149H26.721Z" fill="white"/>
</mask>
<g mask="url(#mask29_42_3079)">
<path d="M155.275 0H0.675207V58.6346H155.275V0Z" fill="white"/>
</g>
<mask id="mask30_42_3079" style="mask-type:luminance" maskUnits="userSpaceOnUse" x="27" y="54" width="3" height="5">
<path d="M29.7576 55.0149C29.7576 55.0633 29.7259 55.0859 29.6587 55.0859H28.6571V57.9556C28.6571 57.9798 28.6478 57.9992 28.631 58.0185C28.6142 58.0378 28.5918 58.0459 28.5638 58.0459H28.2803C28.2523 58.0459 28.2318 58.0362 28.2132 58.0185C28.1964 58.0008 28.1889 57.9798 28.1889 57.9556V55.0859H27.1854C27.1575 55.0859 27.1332 55.0794 27.1127 55.0682C27.0922 55.0569 27.081 55.0391 27.081 55.0149V54.8199C27.081 54.7957 27.0922 54.7763 27.1127 54.7618C27.1332 54.7473 27.1575 54.7393 27.1854 54.7393H29.6606C29.7259 54.7393 29.7594 54.7667 29.7594 54.8199V55.0149H29.7576Z" fill="white"/>
</mask>
<g mask="url(#mask30_42_3079)">
<path d="M155.275 0H0.675207V58.6346H155.275V0Z" fill="white"/>
</g>
<mask id="mask31_42_3079" style="mask-type:luminance" maskUnits="userSpaceOnUse" x="29" y="54" width="4" height="5">
<path d="M32.5852 57.9753C32.5852 58.0221 32.5554 58.0463 32.4976 58.0463H32.1954C32.1712 58.0463 32.1506 58.0398 32.1394 58.0253C32.1264 58.0124 32.1152 57.9963 32.1077 57.9786L31.7739 56.9548H30.4402L30.1101 57.9786C30.1045 57.9963 30.0914 58.0124 30.0747 58.0253C30.0579 58.0382 30.0374 58.0463 30.0187 58.0463H29.7147C29.6569 58.0463 29.627 58.0221 29.627 57.9753C29.627 57.9608 29.627 57.9495 29.6326 57.9447L30.5839 55.0475C30.6044 54.9798 30.6342 54.9234 30.6734 54.8799C30.7126 54.8363 30.7555 54.8025 30.804 54.7783C30.8524 54.7525 30.9028 54.7348 30.9569 54.7251C31.0091 54.7154 31.0595 54.709 31.108 54.709C31.1565 54.709 31.2068 54.7138 31.2572 54.7219C31.3094 54.7299 31.3598 54.7477 31.4064 54.7735C31.453 54.7993 31.4978 54.8331 31.5388 54.8767C31.578 54.9202 31.6079 54.975 31.6284 55.0427L32.5796 57.9447C32.5796 57.9447 32.5834 57.9608 32.5834 57.9753H32.5852ZM31.2068 55.1411C31.1901 55.0879 31.1565 55.0604 31.108 55.0604C31.0558 55.0604 31.0222 55.0879 31.0054 55.1411L30.5372 56.6049H31.675L31.2068 55.1411Z" fill="white"/>
</mask>
<g mask="url(#mask31_42_3079)">
<path d="M155.275 0H0.675205V58.6346H155.275V0Z" fill="white"/>
</g>
<mask id="mask32_42_3079" style="mask-type:luminance" maskUnits="userSpaceOnUse" x="33" y="54" width="4" height="5">
<path d="M36.2541 57.9558C36.2541 57.98 36.2429 57.9993 36.2243 58.0186C36.2037 58.0364 36.1776 58.0461 36.1515 58.0461H35.8997C35.8717 58.0461 35.8475 58.0364 35.827 58.0186C35.8065 58.0009 35.7953 57.98 35.7953 57.9558V55.3166C35.7953 55.3069 35.7953 55.3037 35.7915 55.3037C35.7878 55.3037 35.7859 55.3069 35.7803 55.3134L35.0436 56.6305C35.0156 56.6741 34.9876 56.7079 34.9559 56.7289C34.9242 56.7498 34.8776 56.7595 34.8123 56.7595H34.5754C34.512 56.7595 34.4616 56.7498 34.4318 56.7289C34.4019 56.7079 34.3721 56.6757 34.3441 56.6305L33.6074 55.3134C33.6074 55.3134 33.5999 55.3037 33.5962 55.3037C33.5924 55.3037 33.5924 55.3085 33.5924 55.3166V57.9558C33.5924 57.98 33.5813 57.9993 33.5626 58.0186C33.5421 58.0364 33.5178 58.0461 33.4899 58.0461H33.2381C33.2101 58.0461 33.1858 58.0364 33.1653 58.0186C33.1448 58.0009 33.1355 57.98 33.1355 57.9558V54.8684C33.1355 54.8329 33.1485 54.8023 33.1784 54.7765C33.2082 54.7507 33.2418 54.7378 33.2847 54.7378H33.6204C33.6671 54.7378 33.7025 54.7426 33.7267 54.7539C33.7473 54.7652 33.7678 54.7845 33.7846 54.8136L34.6332 56.3403C34.65 56.3726 34.6724 56.3887 34.6967 56.3887C34.719 56.3887 34.7414 56.3726 34.7582 56.3403L35.6069 54.8136C35.6237 54.7845 35.6442 54.7636 35.6666 54.7539C35.6871 54.7442 35.7225 54.7378 35.7729 54.7378H36.1067C36.1478 54.7378 36.1832 54.7507 36.2131 54.7765C36.2429 54.8023 36.2578 54.8313 36.2578 54.8684V57.9558H36.2541Z" fill="white"/>
</mask>
<g mask="url(#mask32_42_3079)">
<path d="M155.275 0H0.675201V58.6346H155.275V0Z" fill="white"/>
</g>
<mask id="mask33_42_3079" style="mask-type:luminance" maskUnits="userSpaceOnUse" x="38" y="54" width="3" height="5">
<path d="M40.8351 57.1338C40.8351 57.3208 40.7959 57.4755 40.7138 57.5965C40.6336 57.7174 40.5236 57.8141 40.3855 57.8867C40.2457 57.9576 40.0852 58.0076 39.9043 58.035C39.7215 58.0624 39.5313 58.0769 39.3317 58.0769C39.1601 58.0769 39.0034 58.0737 38.8579 58.0672C38.7143 58.0608 38.5912 58.0511 38.4924 58.0366C38.4345 58.0301 38.3916 58.0156 38.3637 57.9931C38.3357 57.9689 38.3226 57.9286 38.3226 57.8721V54.9089C38.3226 54.8073 38.3786 54.7525 38.4886 54.7445C38.5744 54.7348 38.6882 54.7267 38.8356 54.7203C38.981 54.7122 39.1377 54.709 39.3056 54.709C39.5126 54.709 39.7066 54.7219 39.8894 54.7493C40.0703 54.7767 40.2307 54.8218 40.3669 54.8879C40.5049 54.954 40.6131 55.0411 40.6952 55.1507C40.7772 55.2604 40.8164 55.399 40.8164 55.5699V55.6408C40.8164 55.8069 40.7679 55.9504 40.6728 56.0697C40.5758 56.189 40.4396 56.2793 40.2662 56.3389C40.4452 56.3921 40.5851 56.4824 40.6858 56.6098C40.7866 56.7371 40.8369 56.8871 40.8369 57.0596V57.1354L40.8351 57.1338ZM40.3464 55.5683C40.3464 55.4619 40.3221 55.3748 40.2718 55.3087C40.2233 55.2426 40.1524 55.1894 40.061 55.1507C39.9715 55.112 39.8614 55.0862 39.7346 55.0733C39.6077 55.0604 39.466 55.0524 39.3056 55.0524C39.2161 55.0524 39.1284 55.054 39.0389 55.0572C38.9493 55.0604 38.8691 55.0637 38.7964 55.0653V56.1696H39.5872C39.7364 56.1696 39.8577 56.1551 39.9565 56.1277C40.0554 56.1003 40.1319 56.0616 40.1916 56.0117C40.2512 55.9617 40.2904 55.9069 40.3128 55.8424C40.3352 55.7779 40.3464 55.7118 40.3464 55.6392V55.5683V55.5683ZM40.3669 57.058C40.3669 56.9838 40.3538 56.9129 40.3315 56.8452C40.3072 56.7775 40.2662 56.7162 40.2046 56.6646C40.1449 56.613 40.0647 56.5711 39.9659 56.5405C39.867 56.5098 39.7402 56.4937 39.5891 56.4937H38.7982V57.7174C38.884 57.7206 38.9717 57.7238 39.0631 57.7287C39.1526 57.7335 39.244 57.7351 39.3317 57.7351C39.4902 57.7351 39.6339 57.7254 39.7626 57.7093C39.8913 57.6916 39.9994 57.6609 40.0908 57.6158C40.1804 57.5723 40.2494 57.511 40.296 57.4336C40.3445 57.3562 40.3688 57.2579 40.3688 57.1354V57.0596L40.3669 57.058Z" fill="white"/>
</mask>
<g mask="url(#mask33_42_3079)">
<path d="M155.275 0H0.675201V58.6346H155.275V0Z" fill="white"/>
</g>
<mask id="mask34_42_3079" style="mask-type:luminance" maskUnits="userSpaceOnUse" x="41" y="54" width="2" height="5">
<path d="M42.0139 57.9556C42.0139 57.9798 42.0064 57.9992 41.9878 58.0185C41.971 58.0362 41.9486 58.0459 41.9225 58.0459H41.639C41.611 58.0459 41.5886 58.0362 41.5718 58.0185C41.555 58.0008 41.5457 57.9798 41.5457 57.9556V54.8231C41.5457 54.7989 41.555 54.7796 41.5718 54.7634C41.5886 54.7473 41.611 54.7393 41.639 54.7393H41.9225C41.9505 54.7393 41.971 54.7473 41.9878 54.7634C42.0064 54.7796 42.0139 54.8005 42.0139 54.8231V57.9556Z" fill="white"/>
</mask>
<g mask="url(#mask34_42_3079)">
<path d="M155.275 0H0.675201V58.6346H155.275V0Z" fill="white"/>
</g>
<mask id="mask35_42_3079" style="mask-type:luminance" maskUnits="userSpaceOnUse" x="42" y="54" width="4" height="5">
<path d="M45.5671 57.9173C45.5671 57.9527 45.5522 57.9834 45.5223 58.0092C45.4925 58.035 45.4589 58.0462 45.416 58.0462H45.0971C45.015 58.0462 44.959 58.0221 44.9311 57.9753L43.34 55.3635C43.3326 55.3538 43.327 55.3506 43.3251 55.3506C43.3232 55.3506 43.3214 55.3555 43.3214 55.3635V57.9624C43.3214 57.9866 43.3121 58.0059 43.2953 58.0221C43.2766 58.0382 43.2561 58.0462 43.2281 58.0462H42.9595C42.9316 58.0462 42.911 58.043 42.8924 58.0366C42.8756 58.0301 42.8681 58.0156 42.8681 57.993V54.8653C42.8681 54.8299 42.8812 54.8009 42.911 54.7767C42.9409 54.7525 42.9745 54.7412 43.0174 54.7412H43.3009C43.3736 54.7412 43.4221 54.7477 43.4445 54.7622C43.4687 54.7751 43.4911 54.7993 43.5116 54.8315L45.0933 57.4304L45.1027 57.4433C45.1027 57.4433 45.1083 57.4384 45.1083 57.4304V54.8283C45.1083 54.8041 45.1157 54.7847 45.1325 54.7686C45.1512 54.7525 45.1717 54.7444 45.1997 54.7444H45.472C45.4999 54.7444 45.5223 54.7525 45.5391 54.7686C45.5559 54.7847 45.5652 54.8057 45.5652 54.8283V57.9205L45.5671 57.9173Z" fill="white"/>
</mask>
<g mask="url(#mask35_42_3079)">
<path d="M155.275 0H0.675201V58.6346H155.275V0Z" fill="white"/>
</g>
<mask id="mask36_42_3079" style="mask-type:luminance" maskUnits="userSpaceOnUse" x="47" y="54" width="4" height="5">
<path d="M50.3495 57.9753C50.3495 58.0221 50.3197 58.0463 50.26 58.0463H49.9578C49.9336 58.0463 49.9149 58.0398 49.9019 58.0253C49.8888 58.0124 49.8776 57.9963 49.872 57.9786L49.5363 56.9548H48.2026L47.8744 57.9786C47.8669 57.9963 47.8557 58.0124 47.8371 58.0253C47.8203 58.0382 47.8016 58.0463 47.7811 58.0463H47.4789C47.4211 58.0463 47.3913 58.0221 47.3913 57.9753C47.3913 57.9608 47.3913 57.9495 47.395 57.9447L48.3463 55.0475C48.3668 54.9798 48.3966 54.9234 48.4358 54.8799C48.475 54.8363 48.5197 54.8025 48.5682 54.7783C48.6167 54.7541 48.6671 54.7348 48.7193 54.7251C48.7734 54.7154 48.8238 54.709 48.8704 54.709C48.917 54.709 48.9692 54.7138 49.0196 54.7219C49.0718 54.7299 49.1203 54.7477 49.1688 54.7735C49.2173 54.7993 49.2602 54.8331 49.3013 54.8767C49.3404 54.9202 49.3721 54.975 49.3908 55.0427L50.342 57.9447C50.342 57.9447 50.3476 57.9608 50.3476 57.9753H50.3495ZM48.9692 55.1411C48.9525 55.0879 48.9208 55.0604 48.8704 55.0604C48.82 55.0604 48.7846 55.0879 48.7678 55.1411L48.2996 56.6049H49.4374L48.9692 55.1411V55.1411Z" fill="white"/>
</mask>
<g mask="url(#mask36_42_3079)">
<path d="M155.275 0H0.675201V58.6346H155.275V0Z" fill="white"/>
</g>
<mask id="mask37_42_3079" style="mask-type:luminance" maskUnits="userSpaceOnUse" x="50" y="54" width="4" height="5">
<path d="M53.4122 57.1338C53.4122 57.3208 53.3711 57.4755 53.2909 57.5965C53.2107 57.7174 53.0988 57.8141 52.9627 57.8867C52.8228 57.9576 52.6624 58.0076 52.4814 58.035C52.2986 58.0624 52.1103 58.0769 51.9107 58.0769C51.7391 58.0769 51.5824 58.0737 51.4369 58.0672C51.2933 58.0608 51.1721 58.0511 51.0732 58.0366C51.0135 58.0301 50.9706 58.0156 50.9426 57.9931C50.9165 57.9689 50.9035 57.9286 50.9035 57.8721V54.9089C50.9035 54.8073 50.9576 54.7525 51.0676 54.7445C51.1534 54.7348 51.269 54.7267 51.4145 54.7203C51.5619 54.7122 51.7167 54.709 51.8864 54.709C52.0916 54.709 52.2856 54.7219 52.4684 54.7493C52.6512 54.7767 52.8097 54.8218 52.9477 54.8879C53.0839 54.954 53.1939 55.0411 53.2741 55.1507C53.3544 55.2604 53.3954 55.399 53.3954 55.5699V55.6408C53.3954 55.8069 53.3488 55.9504 53.2518 56.0697C53.1548 56.189 53.0205 56.2793 52.847 56.3389C53.0242 56.3921 53.1641 56.4824 53.2667 56.6098C53.3674 56.7371 53.4178 56.8871 53.4178 57.0596V57.1354L53.4122 57.1338ZM52.9216 55.5683C52.9216 55.4619 52.8974 55.3748 52.8489 55.3087C52.7985 55.2426 52.7276 55.1894 52.6381 55.1507C52.5467 55.112 52.4385 55.0862 52.3098 55.0733C52.183 55.0604 52.0412 55.0524 51.8827 55.0524C51.7932 55.0524 51.7036 55.054 51.6141 55.0572C51.5246 55.0604 51.4444 55.0637 51.3716 55.0653V56.1696H52.1643C52.3117 56.1696 52.4348 56.1551 52.5318 56.1277C52.6307 56.1003 52.7071 56.0616 52.7668 56.0117C52.8265 55.9633 52.8657 55.9069 52.888 55.8424C52.9104 55.7779 52.9216 55.7118 52.9216 55.6392V55.5683V55.5683ZM52.9421 57.058C52.9421 56.9838 52.9291 56.9129 52.9048 56.8452C52.8825 56.7775 52.8396 56.7162 52.7799 56.6646C52.7202 56.613 52.64 56.5711 52.5393 56.5405C52.4404 56.5098 52.3154 56.4937 52.1643 56.4937H51.3716V57.7174C51.4574 57.7206 51.547 57.7238 51.6365 57.7287C51.7279 57.7335 51.8174 57.7351 51.9069 57.7351C52.0655 57.7351 52.2091 57.7254 52.3378 57.7093C52.4665 57.6916 52.5747 57.6609 52.6642 57.6158C52.7538 57.5723 52.8228 57.511 52.8713 57.4336C52.9179 57.3562 52.944 57.2579 52.944 57.1354V57.0596L52.9421 57.058Z" fill="white"/>
</mask>
<g mask="url(#mask37_42_3079)">
<path d="M155.275 0H0.675201V58.6346H155.275V0Z" fill="white"/>
</g>
<mask id="mask38_42_3079" style="mask-type:luminance" maskUnits="userSpaceOnUse" x="54" y="54" width="3" height="5">
<path d="M56.6744 56.6936C56.6744 56.9306 56.6371 57.137 56.5644 57.3127C56.4898 57.4884 56.3853 57.6319 56.2492 57.7448C56.1149 57.8576 55.9507 57.9415 55.7586 57.9963C55.5665 58.0511 55.3539 58.0785 55.1151 58.0785C55.0163 58.0785 54.9174 58.0785 54.8241 58.0737C54.729 58.0704 54.6413 58.0672 54.5555 58.0624C54.4716 58.0576 54.397 58.0527 54.3317 58.0495C54.2664 58.0447 54.2142 58.0398 54.1769 58.0334C54.1042 58.0237 54.0687 57.9866 54.0687 57.9221V54.8654C54.0687 54.8009 54.106 54.7638 54.1769 54.7541C54.2142 54.7477 54.2664 54.7428 54.3317 54.738C54.3951 54.7332 54.4716 54.7283 54.5555 54.7251C54.6395 54.7203 54.729 54.717 54.8241 54.7138C54.9174 54.7106 55.0163 54.709 55.1151 54.709C55.352 54.709 55.5665 54.7364 55.7586 54.7896C55.9507 54.8428 56.1149 54.9266 56.2492 55.0411C56.3853 55.1556 56.4898 55.2991 56.5644 55.4732C56.6371 55.6473 56.6744 55.8537 56.6744 56.0939V56.6952V56.6936ZM56.2063 56.0923C56.2063 55.8907 56.1764 55.7231 56.1205 55.5893C56.0645 55.4554 55.988 55.349 55.8892 55.2716C55.7903 55.1943 55.6765 55.1378 55.5441 55.1056C55.4117 55.0733 55.2681 55.0572 55.1132 55.0572C54.992 55.0572 54.8894 55.0572 54.8018 55.0588C54.7141 55.0604 54.6283 55.0637 54.5425 55.0701V57.7222C54.6227 57.7287 54.7085 57.7319 54.7999 57.7319H55.1132C55.2681 57.7319 55.4098 57.7158 55.5441 57.6835C55.6765 57.6513 55.7903 57.5948 55.8892 57.5142C55.988 57.4336 56.0645 57.3288 56.1205 57.1966C56.1764 57.0644 56.2063 56.8984 56.2063 56.6952V56.0939V56.0923Z" fill="white"/>
</mask>
<g mask="url(#mask38_42_3079)">
<path d="M155.275 0H0.675201V58.6346H155.275V0Z" fill="white"/>
</g>
<mask id="mask39_42_3079" style="mask-type:luminance" maskUnits="userSpaceOnUse" x="57" y="54" width="3" height="5">
<path d="M59.9908 56.8451C59.9908 57.2692 59.8751 57.5803 59.6438 57.7802C59.4126 57.9785 59.088 58.0785 58.6739 58.0785C58.2599 58.0785 57.9316 57.9785 57.7003 57.7802C57.4709 57.5819 57.3552 57.2692 57.3552 56.8451V54.825C57.3552 54.8009 57.3646 54.7815 57.3832 54.7654C57.4037 54.7493 57.4261 54.7412 57.4541 54.7412H57.732C57.7581 54.7412 57.7824 54.7493 57.801 54.7654C57.8197 54.7815 57.829 54.8025 57.829 54.825V56.8451C57.829 56.987 57.8421 57.1144 57.87 57.2256C57.898 57.3369 57.9446 57.4304 58.0118 57.5045C58.0789 57.5787 58.1647 57.6351 58.271 57.6738C58.3774 57.7125 58.5117 57.7319 58.6721 57.7319C58.8325 57.7319 58.963 57.7125 59.0712 57.6738C59.1775 57.6351 59.2652 57.5787 59.3324 57.5045C59.3995 57.4304 59.448 57.3385 59.4741 57.2289C59.5002 57.1192 59.5151 56.9919 59.5151 56.8468V54.8267C59.5151 54.8025 59.5245 54.7831 59.5431 54.767C59.5618 54.7509 59.5842 54.7428 59.6121 54.7428H59.89C59.918 54.7428 59.9404 54.7509 59.9591 54.767C59.9796 54.7831 59.9889 54.8041 59.9889 54.8267V56.8468L59.9908 56.8451Z" fill="white"/>
</mask>
<g mask="url(#mask39_42_3079)">
<path d="M155.275 0H0.675201V58.6346H155.275V0Z" fill="white"/>
</g>
<mask id="mask40_42_3079" style="mask-type:luminance" maskUnits="userSpaceOnUse" x="60" y="54" width="3" height="5">
<path d="M62.9285 57.9753C62.9285 57.9898 62.9248 58.0027 62.9154 58.0156C62.9061 58.0285 62.8949 58.035 62.8763 58.0382C62.8072 58.0479 62.6841 58.0559 62.5051 58.0656C62.326 58.0753 62.1152 58.0785 61.8709 58.0785C61.7329 58.0785 61.5986 58.0688 61.4662 58.0511C61.3337 58.0333 61.2162 57.9963 61.1136 57.9382C61.0092 57.8802 60.9271 57.798 60.8656 57.6899C60.804 57.5819 60.7742 57.4352 60.7742 57.2514V54.8315C60.7742 54.8073 60.7835 54.788 60.804 54.7686C60.8245 54.7509 60.8488 54.7412 60.8768 54.7412H61.1379C61.1659 54.7412 61.1901 54.7509 61.2106 54.7686C61.2311 54.7864 61.2423 54.8073 61.2423 54.8315V57.2514C61.2423 57.3369 61.2498 57.4094 61.2647 57.4675C61.2796 57.5255 61.3095 57.5723 61.3542 57.6093C61.399 57.6464 61.4606 57.6738 61.5445 57.6899C61.6284 57.7061 61.7366 57.7141 61.8728 57.7141H62.8669C62.9061 57.7141 62.9229 57.7319 62.9229 57.7673V57.9769L62.9285 57.9753Z" fill="white"/>
</mask>
<g mask="url(#mask40_42_3079)">
<path d="M155.275 0H0.675205V58.6346H155.275V0Z" fill="white"/>
</g>
<mask id="mask41_42_3079" style="mask-type:luminance" maskUnits="userSpaceOnUse" x="63" y="54" width="4" height="5">
<path d="M66.131 57.9753C66.131 58.0221 66.1012 58.0463 66.0434 58.0463H65.7412C65.717 58.0463 65.6965 58.0398 65.6853 58.0253C65.6722 58.0124 65.661 57.9963 65.6535 57.9786L65.3197 56.9548H63.9861L63.6559 57.9786C63.6503 57.9963 63.6373 58.0124 63.6205 58.0253C63.6037 58.0382 63.5832 58.0463 63.5645 58.0463H63.2605C63.2027 58.0463 63.1728 58.0221 63.1728 57.9753C63.1728 57.9608 63.1728 57.9495 63.1784 57.9447L64.1297 55.0475C64.1502 54.9798 64.18 54.9234 64.2192 54.8799C64.2584 54.8363 64.3013 54.8025 64.3498 54.7783C64.3983 54.7525 64.4486 54.7348 64.5027 54.7251C64.5549 54.7154 64.6053 54.709 64.6538 54.709C64.7023 54.709 64.7527 54.7138 64.803 54.7219C64.8552 54.7299 64.9056 54.7477 64.9522 54.7735C64.9989 54.7993 65.0436 54.8331 65.0847 54.8767C65.1238 54.9202 65.1537 54.975 65.1742 55.0427L66.1254 57.9447C66.1254 57.9447 66.1292 57.9608 66.1292 57.9753H66.131ZM64.7527 55.1411C64.7359 55.0879 64.7023 55.0604 64.6538 55.0604C64.6016 55.0604 64.568 55.0879 64.5512 55.1411L64.083 56.6049H65.2208L64.7527 55.1411V55.1411Z" fill="white"/>
</mask>
<g mask="url(#mask41_42_3079)">
<path d="M155.275 0H0.675201V58.6346H155.275V0Z" fill="white"/>
</g>
<mask id="mask42_42_3079" style="mask-type:luminance" maskUnits="userSpaceOnUse" x="66" y="54" width="4" height="5">
<path d="M69.0799 57.9653C69.0799 57.9895 69.0706 58.0088 69.0501 58.0233C69.0296 58.0378 69.0053 58.0459 68.9774 58.0459H66.9946C66.8305 58.0459 66.7167 58.0249 66.657 57.983C66.5974 57.9411 66.5675 57.8621 66.5675 57.7428C66.5675 57.7041 66.5731 57.6606 66.5862 57.609C66.5992 57.559 66.6179 57.5171 66.6458 57.4849L68.4887 55.1665C68.498 55.1552 68.5036 55.1423 68.5036 55.131C68.5036 55.1101 68.4849 55.1004 68.4514 55.1004H66.741C66.713 55.1004 66.6906 55.0939 66.6682 55.081C66.6477 55.0681 66.6384 55.0488 66.6384 55.0246V54.815C66.6384 54.7908 66.6496 54.7731 66.6682 54.7602C66.6887 54.7473 66.713 54.7393 66.741 54.7393H68.5745C68.7181 54.7393 68.8263 54.7586 68.9009 54.7957C68.9755 54.8328 69.0128 54.9118 69.0128 55.0327C69.0128 55.0746 69.0053 55.1197 68.9923 55.1713C68.9792 55.2213 68.9587 55.2632 68.9307 55.2955L67.0916 57.6138C67.0804 57.6283 67.0767 57.6412 67.0767 57.6541C67.0767 57.6719 67.0935 57.6815 67.1289 57.6815H68.9755C69.0035 57.6815 69.0277 57.688 69.0482 57.7009C69.0688 57.7138 69.0781 57.7331 69.0781 57.7573V57.9669L69.0799 57.9653Z" fill="white"/>
</mask>
<g mask="url(#mask42_42_3079)">
<path d="M155.275 0H0.675201V58.6346H155.275V0Z" fill="white"/>
</g>
<mask id="mask43_42_3079" style="mask-type:luminance" maskUnits="userSpaceOnUse" x="69" y="54" width="2" height="5">
<path d="M70.2755 57.9556C70.2755 57.9798 70.2662 57.9992 70.2494 58.0185C70.2326 58.0378 70.2103 58.0459 70.1823 58.0459H69.8988C69.8708 58.0459 69.8503 58.0362 69.8335 58.0185C69.8148 58.0008 69.8074 57.9798 69.8074 57.9556V54.8231C69.8074 54.7989 69.8148 54.7796 69.8335 54.7634C69.8503 54.7473 69.8727 54.7393 69.8988 54.7393H70.1823C70.2103 54.7393 70.2326 54.7473 70.2494 54.7634C70.2662 54.7796 70.2755 54.8005 70.2755 54.8231V57.9556Z" fill="white"/>
</mask>
<g mask="url(#mask43_42_3079)">
<path d="M155.275 0H0.675201V58.6346H155.275V0Z" fill="white"/>
</g>
<mask id="mask44_42_3079" style="mask-type:luminance" maskUnits="userSpaceOnUse" x="71" y="54" width="3" height="5">
<path d="M73.5285 57.9653C73.5285 57.9895 73.5191 58.0088 73.4986 58.0233C73.4781 58.0378 73.4539 58.0459 73.4259 58.0459H71.4432C71.279 58.0459 71.1652 58.0249 71.1056 57.983C71.0459 57.9411 71.016 57.8621 71.016 57.7428C71.016 57.7041 71.0216 57.6606 71.0347 57.609C71.0477 57.559 71.0664 57.5171 71.0944 57.4849L72.9372 55.1665C72.9465 55.1552 72.9521 55.1423 72.9521 55.131C72.9521 55.1101 72.9335 55.1004 72.8999 55.1004H71.1895C71.1615 55.1004 71.1391 55.0939 71.1168 55.081C71.0962 55.0681 71.0869 55.0488 71.0869 55.0246V54.815C71.0869 54.7908 71.0981 54.7731 71.1168 54.7602C71.1373 54.7473 71.1615 54.7393 71.1895 54.7393H73.023C73.1666 54.7393 73.2748 54.7586 73.3494 54.7957C73.424 54.8328 73.4613 54.9118 73.4613 55.0327C73.4613 55.0746 73.4539 55.1197 73.4408 55.1713C73.4277 55.2213 73.4072 55.2632 73.3793 55.2955L71.5402 57.6138C71.529 57.6283 71.5252 57.6412 71.5252 57.6541C71.5252 57.6719 71.542 57.6815 71.5775 57.6815H73.424C73.452 57.6815 73.4762 57.688 73.4968 57.7009C73.5173 57.7138 73.5266 57.7331 73.5266 57.7573V57.9669L73.5285 57.9653Z" fill="white"/>
</mask>
<g mask="url(#mask44_42_3079)">
<path d="M155.275 0H0.675201V58.6346H155.275V0Z" fill="white"/>
</g>
<mask id="mask45_42_3079" style="mask-type:luminance" maskUnits="userSpaceOnUse" x="75" y="54" width="4" height="5">
<path d="M78.0945 56.8451C78.0945 57.2692 77.9789 57.5803 77.7476 57.7802C77.5163 57.9785 77.1936 58.0785 76.7777 58.0785C76.3599 58.0785 76.0353 57.9785 75.8059 57.7802C75.5765 57.5819 75.4608 57.2692 75.4608 56.8451V54.825C75.4608 54.8009 75.472 54.7815 75.4907 54.7654C75.5093 54.7493 75.5317 54.7412 75.5597 54.7412H75.8376C75.8656 54.7412 75.888 54.7493 75.9066 54.7654C75.9271 54.7815 75.9365 54.8025 75.9365 54.825V56.8451C75.9365 56.987 75.9495 57.1144 75.9775 57.2256C76.0055 57.3369 76.0521 57.4304 76.1174 57.5045C76.1845 57.5787 76.2722 57.6351 76.3766 57.6738C76.483 57.7125 76.6173 57.7319 76.7777 57.7319C76.9381 57.7319 77.0705 57.7125 77.1768 57.6738C77.285 57.6351 77.3727 57.5787 77.4398 57.5045C77.5051 57.4304 77.5536 57.3385 77.5797 57.2289C77.6058 57.1192 77.6207 56.9919 77.6207 56.8468V54.8267C77.6207 54.8025 77.6301 54.7831 77.6506 54.767C77.6692 54.7509 77.6916 54.7428 77.7196 54.7428H77.9975C78.0255 54.7428 78.0479 54.7509 78.0665 54.767C78.0852 54.7831 78.0945 54.8041 78.0945 54.8267V56.8468V56.8451Z" fill="white"/>
</mask>
<g mask="url(#mask45_42_3079)">
<path d="M155.275 0H0.675201V58.6346H155.275V0Z" fill="white"/>
</g>
<mask id="mask46_42_3079" style="mask-type:luminance" maskUnits="userSpaceOnUse" x="78" y="54" width="4" height="5">
<path d="M81.5787 57.9173C81.5787 57.9527 81.5657 57.9834 81.5358 58.0092C81.506 58.035 81.4724 58.0462 81.4295 58.0462H81.1087C81.0285 58.0462 80.9725 58.0221 80.9446 57.9753L79.3535 55.3635C79.3461 55.3538 79.3405 55.3506 79.3367 55.3506C79.333 55.3506 79.333 55.3555 79.333 55.3635V57.9624C79.333 57.9866 79.3237 58.0059 79.3069 58.0221C79.2901 58.0382 79.2677 58.0462 79.2416 58.0462H78.973C78.945 58.0462 78.9227 58.043 78.9059 58.0366C78.8891 58.0301 78.8798 58.0156 78.8798 57.993V54.8653C78.8798 54.8299 78.8947 54.8009 78.9245 54.7767C78.9544 54.7525 78.9879 54.7412 79.0308 54.7412H79.3144C79.3871 54.7412 79.4337 54.7477 79.458 54.7622C79.4804 54.7751 79.5046 54.7993 79.5233 54.8315L81.105 57.4304L81.1162 57.4433C81.1162 57.4433 81.1199 57.4384 81.1199 57.4304V54.8283C81.1199 54.8041 81.1292 54.7847 81.146 54.7686C81.1628 54.7525 81.1852 54.7444 81.2131 54.7444H81.4855C81.5134 54.7444 81.534 54.7525 81.5526 54.7686C81.5694 54.7847 81.5769 54.8057 81.5769 54.8283V57.9205L81.5787 57.9173Z" fill="white"/>
</mask>
<g mask="url(#mask46_42_3079)">
<path d="M155.275 0H0.675201V58.6346H155.275V0Z" fill="white"/>
</g>
<mask id="mask47_42_3079" style="mask-type:luminance" maskUnits="userSpaceOnUse" x="82" y="54" width="1" height="5">
<path d="M82.903 57.9556C82.903 57.9798 82.8937 57.9992 82.8769 58.0185C82.8601 58.0378 82.8377 58.0459 82.8098 58.0459H82.5263C82.4983 58.0459 82.4778 58.0362 82.461 58.0185C82.4423 58.0008 82.4349 57.9798 82.4349 57.9556V54.8231C82.4349 54.7989 82.4423 54.7796 82.461 54.7634C82.4778 54.7473 82.5001 54.7393 82.5263 54.7393H82.8098C82.8377 54.7393 82.8601 54.7473 82.8769 54.7634C82.8937 54.7796 82.903 54.8005 82.903 54.8231V57.9556Z" fill="white"/>
</mask>
<g mask="url(#mask47_42_3079)">
<path d="M155.275 0H0.675201V58.6346H155.275V0Z" fill="white"/>
</g>
<mask id="mask48_42_3079" style="mask-type:luminance" maskUnits="userSpaceOnUse" x="83" y="54" width="4" height="5">
<path d="M86.4898 54.815C86.4898 54.8263 86.4898 54.836 86.4861 54.8424L85.5386 57.7396C85.5143 57.8105 85.4826 57.8686 85.4434 57.9105C85.4043 57.954 85.3614 57.9879 85.3129 58.012C85.2662 58.0378 85.2177 58.054 85.1637 58.0636C85.1096 58.0733 85.0592 58.0765 85.0126 58.0765C84.9659 58.0765 84.9137 58.0717 84.8634 58.0636C84.813 58.054 84.7626 58.0378 84.7141 58.012C84.6656 57.9863 84.6227 57.9524 84.5817 57.9105C84.5407 57.8686 84.509 57.8105 84.4866 57.7396L83.5335 54.8424C83.5335 54.8424 83.5297 54.8279 83.5297 54.815C83.5297 54.7908 83.5391 54.7731 83.5558 54.7602C83.5726 54.7473 83.595 54.7393 83.623 54.7393H83.9214C83.9419 54.7393 83.9606 54.7457 83.9774 54.7602C83.9942 54.7731 84.0072 54.7892 84.0128 54.807L84.9081 57.6412C84.9286 57.7041 84.9641 57.7347 85.0126 57.7347C85.0573 57.7347 85.089 57.7041 85.1114 57.6412L86.0105 54.807C86.0179 54.7892 86.0291 54.7731 86.044 54.7602C86.059 54.7473 86.0776 54.7393 86.0981 54.7393H86.4022C86.46 54.7393 86.4898 54.7651 86.4898 54.815V54.815Z" fill="white"/>
</mask>
<g mask="url(#mask48_42_3079)">
<path d="M155.275 0H0.675201V58.6346H155.275V0Z" fill="white"/>
</g>
<mask id="mask49_42_3079" style="mask-type:luminance" maskUnits="userSpaceOnUse" x="86" y="54" width="4" height="5">
<path d="M89.0843 57.9931C89.0843 58.0076 89.0806 58.0205 89.0713 58.0334C89.062 58.0447 89.0489 58.0527 89.0321 58.0559C88.9855 58.0624 88.9183 58.0656 88.8363 58.0672C88.7561 58.0672 88.6665 58.0704 88.5714 58.0737C88.4781 58.0769 88.3811 58.0785 88.286 58.0785H88.0268C87.6649 58.0785 87.3907 58.014 87.2061 57.8867C87.0233 57.7593 86.93 57.5465 86.93 57.2498V55.5361C86.93 55.2394 87.0214 55.0266 87.2061 54.9008C87.3889 54.7735 87.663 54.709 88.0268 54.709H88.2786L88.5621 54.7187C88.6553 54.7187 88.743 54.7219 88.8251 54.7283L89.0302 54.738C89.047 54.7412 89.0601 54.7477 89.0694 54.7606C89.0769 54.7719 89.0825 54.7864 89.0825 54.8009V55.0234C89.0825 55.0588 89.0638 55.0766 89.0265 55.0766H88.0324C87.8943 55.0766 87.7843 55.0846 87.7041 55.1008C87.622 55.1169 87.5567 55.1443 87.512 55.1814C87.4672 55.2184 87.4374 55.2668 87.4224 55.3265C87.4075 55.3861 87.4 55.457 87.4 55.5393V56.1584H88.9817C89.0097 56.1584 89.0321 56.168 89.0545 56.1858C89.075 56.2035 89.0843 56.2245 89.0843 56.2487V56.4179C89.0843 56.4421 89.0731 56.4615 89.0545 56.4808C89.034 56.4985 89.0097 56.5082 88.9817 56.5082H87.4V57.2563C87.4 57.3417 87.4075 57.4143 87.4224 57.4723C87.4374 57.5304 87.4691 57.5771 87.512 57.6142C87.5549 57.6513 87.6201 57.6787 87.7041 57.6948C87.7843 57.7109 87.8962 57.719 88.0324 57.719H89.0265C89.0657 57.719 89.0825 57.7367 89.0825 57.7722V57.9995L89.0843 57.9931Z" fill="white"/>
</mask>
<g mask="url(#mask49_42_3079)">
<path d="M155.275 0H0.675201V58.6346H155.275V0Z" fill="white"/>
</g>
<mask id="mask50_42_3079" style="mask-type:luminance" maskUnits="userSpaceOnUse" x="89" y="54" width="4" height="5">
<path d="M92.3839 57.9882C92.3839 58.0269 92.3634 58.0463 92.3167 58.0463H91.9885C91.9586 58.0463 91.9325 58.0447 91.9139 58.0398C91.8952 58.035 91.8747 58.0189 91.856 57.9882L90.9346 56.663H90.8003C90.7145 56.663 90.6343 56.663 90.556 56.6614C90.4795 56.6614 90.3732 56.6565 90.2352 56.6501V57.9576C90.2352 57.9818 90.2277 58.0011 90.2091 58.0205C90.1923 58.0382 90.1699 58.0479 90.1438 58.0479H89.8659C89.8379 58.0479 89.8174 58.0382 89.7987 58.0205C89.7819 58.0027 89.7745 57.9818 89.7745 57.9576V54.8428C89.7745 54.8106 89.7819 54.788 89.7987 54.7735C89.8174 54.7606 89.8491 54.7509 89.8976 54.7445C89.9535 54.738 90.0169 54.7332 90.0897 54.7283C90.1643 54.7235 90.2408 54.7203 90.3228 54.717C90.403 54.7138 90.4851 54.7122 90.5672 54.7106C90.6474 54.7106 90.7276 54.709 90.8022 54.709C91.0055 54.709 91.1939 54.7251 91.3711 54.7574C91.5464 54.7896 91.6994 54.8428 91.8281 54.917C91.9568 54.9911 92.0575 55.0895 92.1321 55.2104C92.2048 55.3313 92.2421 55.4828 92.2421 55.665V55.6957C92.2421 55.8198 92.2216 55.9327 92.1824 56.031C92.1433 56.131 92.0873 56.2164 92.0164 56.2906C91.9437 56.3647 91.8579 56.4276 91.759 56.4776C91.6602 56.5276 91.5501 56.5663 91.4345 56.5937L92.3708 57.9463C92.382 57.9608 92.3858 57.9737 92.3858 57.9866L92.3839 57.9882ZM91.7758 55.665C91.7758 55.4425 91.6938 55.2878 91.5296 55.2023C91.3636 55.1153 91.1211 55.0733 90.7985 55.0733H90.6586C90.6082 55.0733 90.556 55.0733 90.5019 55.075C90.4478 55.0766 90.3974 55.0782 90.3508 55.0798C90.3023 55.0798 90.2613 55.083 90.2314 55.0862V56.3051C90.3452 56.3083 90.4534 56.3099 90.556 56.3115C90.6586 56.3131 90.7388 56.3131 90.7985 56.3131C90.957 56.3131 91.0969 56.3035 91.2181 56.2841C91.3412 56.2648 91.4438 56.2309 91.524 56.1842C91.6061 56.1358 91.6695 56.0729 91.7124 55.9955C91.7553 55.9181 91.7758 55.8166 91.7758 55.6957V55.665V55.665Z" fill="white"/>
</mask>
<g mask="url(#mask50_42_3079)">
<path d="M155.275 0H0.675201V58.6346H155.275V0Z" fill="white"/>
</g>
<mask id="mask51_42_3079" style="mask-type:luminance" maskUnits="userSpaceOnUse" x="92" y="54" width="4" height="5">
<path d="M95.1593 57.1867C95.1593 57.2931 95.1407 57.3995 95.1034 57.5075C95.0642 57.6139 94.9989 57.7106 94.9038 57.7945C94.8105 57.8799 94.68 57.9476 94.5158 57.9992C94.3517 58.0508 94.1428 58.0766 93.8891 58.0766C93.7063 58.0766 93.5478 58.0702 93.4097 58.0573C93.2736 58.0444 93.1486 58.0299 93.0348 58.0153C92.9901 58.0089 92.9621 58.0008 92.9528 57.9879C92.9434 57.975 92.9378 57.9589 92.9378 57.9347V57.7574C92.9378 57.7332 92.9472 57.7155 92.964 57.7042C92.9808 57.6929 93.0013 57.6864 93.0255 57.6864H93.0404C93.0983 57.6929 93.1635 57.6977 93.24 57.6993C93.3128 57.7026 93.3892 57.7058 93.4638 57.709L93.6895 57.7139H93.8891C94.0439 57.7139 94.1726 57.701 94.2733 57.6768C94.3741 57.6526 94.4543 57.6155 94.5121 57.5704C94.5699 57.5252 94.6109 57.4688 94.6352 57.4027C94.6576 57.3382 94.6706 57.2657 94.6706 57.1899C94.6706 57.1335 94.6613 57.0819 94.6408 57.0367C94.6203 56.99 94.5848 56.9464 94.5382 56.9013C94.4916 56.8578 94.4263 56.8094 94.3461 56.761C94.2677 56.7127 94.1708 56.6562 94.0532 56.595L93.5534 56.3322C93.3165 56.2081 93.1393 56.0823 93.0199 55.9565C92.9024 55.8308 92.8427 55.6792 92.8427 55.5003C92.8427 55.231 92.949 55.0311 93.1635 54.9038C93.3762 54.7764 93.6802 54.7119 94.0738 54.7119C94.1502 54.7119 94.2304 54.7135 94.3144 54.7168C94.3983 54.72 94.4804 54.7232 94.5606 54.728C94.6408 54.7329 94.7191 54.7393 94.79 54.7458C94.8628 54.7538 94.9224 54.7603 94.9691 54.7667C95.0288 54.7764 95.0586 54.8006 95.0586 54.8425V55.0344C95.0586 55.0811 95.0288 55.1053 94.9691 55.1053H94.9597C94.846 55.0988 94.7079 55.094 94.5457 55.0876C94.3815 55.0811 94.2248 55.0779 94.0738 55.0779C93.8052 55.0779 93.6131 55.1069 93.4956 55.1666C93.378 55.2262 93.3184 55.3375 93.3184 55.5003C93.3184 55.6035 93.3631 55.6954 93.4508 55.7711C93.5403 55.8485 93.6839 55.9372 93.8779 56.0388L94.3517 56.2838C94.499 56.3612 94.624 56.4354 94.7266 56.5063C94.831 56.5772 94.915 56.6482 94.9784 56.7207C95.0437 56.7917 95.0903 56.8658 95.1183 56.9432C95.1463 57.0206 95.1593 57.1028 95.1593 57.1931V57.1867Z" fill="white"/>
</mask>
<g mask="url(#mask51_42_3079)">
<path d="M155.275 0H0.675201V58.6346H155.275V0Z" fill="white"/>
</g>
<mask id="mask52_42_3079" style="mask-type:luminance" maskUnits="userSpaceOnUse" x="95" y="54" width="2" height="5">
<path d="M96.3381 57.9556C96.3381 57.9798 96.3288 57.9992 96.312 58.0185C96.2952 58.0378 96.2729 58.0459 96.2449 58.0459H95.9614C95.9334 58.0459 95.9129 58.0362 95.8961 58.0185C95.8774 58.0008 95.87 57.9798 95.87 57.9556V54.8231C95.87 54.7989 95.8774 54.7796 95.8961 54.7634C95.9129 54.7473 95.9353 54.7393 95.9614 54.7393H96.2449C96.2729 54.7393 96.2952 54.7473 96.312 54.7634C96.3288 54.7796 96.3381 54.8005 96.3381 54.8231V57.9556Z" fill="white"/>
</mask>
<g mask="url(#mask52_42_3079)">
<path d="M155.275 0H0.675201V58.6346H155.275V0Z" fill="white"/>
</g>
<mask id="mask53_42_3079" style="mask-type:luminance" maskUnits="userSpaceOnUse" x="96" y="54" width="4" height="5">
<path d="M99.647 55.0149C99.647 55.0633 99.6153 55.0859 99.5482 55.0859H98.5466V57.9556C98.5466 57.9798 98.5372 57.9992 98.5204 58.0185C98.5037 58.0378 98.4813 58.0459 98.4533 58.0459H98.1698C98.1418 58.0459 98.1213 58.0362 98.1026 58.0185C98.0858 58.0008 98.0784 57.9798 98.0784 57.9556V55.0859H97.0749C97.0469 55.0859 97.0227 55.0794 97.0022 55.0682C96.9816 55.0569 96.9705 55.0391 96.9705 55.0149V54.8199C96.9705 54.7957 96.9816 54.7763 97.0022 54.7618C97.0227 54.7473 97.0469 54.7393 97.0749 54.7393H99.55C99.6153 54.7393 99.6489 54.7667 99.6489 54.8199V55.0149H99.647Z" fill="white"/>
</mask>
<g mask="url(#mask53_42_3079)">
<path d="M155.275 0H0.675209V58.6346H155.275V0Z" fill="white"/>
</g>
<mask id="mask54_42_3079" style="mask-type:luminance" maskUnits="userSpaceOnUse" x="100" y="54" width="3" height="5">
<path d="M102.654 54.8023C102.654 54.8168 102.648 54.8329 102.639 54.8506L101.841 56.3984C101.794 56.487 101.747 56.5548 101.701 56.5983C101.656 56.6418 101.611 56.6741 101.563 56.6918V57.9558C101.563 57.98 101.553 57.9993 101.536 58.0186C101.52 58.038 101.497 58.0461 101.469 58.0461H101.186C101.158 58.0461 101.137 58.0364 101.119 58.0186C101.102 58.0009 101.094 57.98 101.094 57.9558V56.6918C101.046 56.6773 100.999 56.6467 100.955 56.5999C100.91 56.5548 100.863 56.487 100.815 56.3968L100.022 54.849C100.011 54.8313 100.007 54.8152 100.007 54.8007C100.007 54.7588 100.037 54.7378 100.095 54.7378H100.408C100.425 54.7378 100.443 54.7442 100.464 54.7588C100.483 54.7717 100.494 54.7862 100.503 54.8007L101.214 56.242C101.242 56.292 101.262 56.3242 101.281 56.3371C101.298 56.35 101.315 56.3565 101.331 56.3565C101.35 56.3565 101.367 56.35 101.384 56.3371C101.4 56.3242 101.423 56.292 101.451 56.242L102.165 54.8007C102.173 54.7862 102.184 54.7717 102.199 54.7588C102.214 54.7459 102.232 54.7378 102.253 54.7378H102.568C102.626 54.7378 102.656 54.7588 102.656 54.8007L102.654 54.8023Z" fill="white"/>
</mask>
<g mask="url(#mask54_42_3079)">
<path d="M155.275 0H0.675209V58.6346H155.275V0Z" fill="white"/>
</g>
<mask id="mask55_42_3079" style="mask-type:luminance" maskUnits="userSpaceOnUse" x="113" y="4" width="38" height="38">
<path d="M132.092 4.35791C128.069 5.78472 124.307 7.70648 120.92 10.0635C116.492 13.2444 113.714 17.8215 113.205 22.779V41.729H114.543V22.8306C115.035 18.202 117.633 13.9312 121.767 10.9567C124.908 8.77215 128.381 6.97292 132.09 5.60899C135.8 6.97292 139.275 8.77215 142.414 10.9567C146.302 13.7523 148.84 17.7022 149.532 22.0326C149.603 22.4743 149.638 22.9193 149.638 23.3643V41.7274H150.976V23.2885C150.976 22.8726 150.944 22.4566 150.884 22.0455C150.187 17.362 147.464 13.0816 143.261 10.0635C139.874 7.70648 136.112 5.78472 132.089 4.35791H132.092Z" fill="white"/>
</mask>
<g mask="url(#mask55_42_3079)">
<path d="M155.275 0H0.675209V58.6346H155.275V0Z" fill="white"/>
</g>
<mask id="mask56_42_3079" style="mask-type:luminance" maskUnits="userSpaceOnUse" x="116" y="7" width="32" height="35">
<path d="M141.133 12.314C138.367 10.3906 135.329 8.7816 132.092 7.52246C128.856 8.7816 125.818 10.3906 123.052 12.314C119.532 14.85 117.245 18.4371 116.643 22.3629C116.594 22.6805 116.57 23.0013 116.57 23.3221V41.7304H117.238V23.3608C117.238 23.0287 117.264 22.6966 117.316 22.3677C117.913 18.6145 120.108 15.1885 123.475 12.7622C126.116 10.9258 129.011 9.37973 132.092 8.15767C135.174 9.37973 138.069 10.9258 140.71 12.7622C144.076 15.1885 146.272 18.6145 146.869 22.3677C146.921 22.6966 146.947 23.0287 146.947 23.3608V41.7304H147.615V23.3221C147.615 23.0013 147.59 22.6821 147.542 22.3629C146.939 18.4371 144.653 14.85 141.133 12.314V12.314Z" fill="white"/>
</mask>
<g mask="url(#mask56_42_3079)">
<path d="M155.275 0H0.675209V58.6346H155.275V0Z" fill="white"/>
</g>
<mask id="mask57_42_3079" style="mask-type:luminance" maskUnits="userSpaceOnUse" x="119" y="10" width="26" height="32">
<path d="M144.871 22.679C144.362 19.3353 142.418 16.2802 139.425 14.1166C137.16 12.5447 134.702 11.1968 132.092 10.0957C129.483 11.1968 127.023 12.5447 124.76 14.1166C121.767 16.2802 119.823 19.3353 119.314 22.679C119.282 22.8902 119.265 23.1014 119.265 23.3142V41.7305H119.599V23.3336C119.599 23.1175 119.616 22.9015 119.65 22.6871C120.155 19.4272 122.054 16.4494 124.971 14.3407C127.172 12.8123 129.559 11.4967 132.092 10.4181C134.623 11.4967 137.013 12.8123 139.214 14.3407C142.133 16.451 144.032 19.4288 144.535 22.6871C144.569 22.9015 144.586 23.1175 144.586 23.3336V41.7305H144.919V23.3142C144.919 23.1014 144.903 22.8902 144.871 22.679V22.679Z" fill="white"/>
</mask>
<g mask="url(#mask57_42_3079)">
<path d="M155.275 0H0.675209V58.6346H155.275V0Z" fill="white"/>
</g>
<mask id="mask58_42_3079" style="mask-type:luminance" maskUnits="userSpaceOnUse" x="121" y="12" width="22" height="30">
<path d="M142.536 22.9791C142.112 20.1368 140.467 17.5379 137.929 15.6951C136.11 14.4344 134.155 13.3252 132.092 12.3853C130.029 13.3268 128.077 14.4344 126.256 15.6951C123.718 17.5363 122.072 20.1368 121.649 22.9791C121.634 23.0823 121.627 23.1855 121.627 23.2903V41.7307H121.795V23.2983C121.795 23.1935 121.802 23.0887 121.819 22.9856C122.238 20.1851 123.861 17.6233 126.364 15.8064C128.151 14.5666 130.07 13.4767 132.094 12.5481C134.118 13.4767 136.035 14.5682 137.824 15.8064C140.327 17.6217 141.95 20.1835 142.37 22.9856C142.385 23.0887 142.394 23.1935 142.394 23.2983V41.7307H142.562V23.2903C142.562 23.1871 142.554 23.0823 142.539 22.9791H142.536Z" fill="white"/>
</mask>
<g mask="url(#mask58_42_3079)">
<path d="M155.275 0H0.675209V58.6346H155.275V0Z" fill="white"/>
</g>
<mask id="mask59_42_3079" style="mask-type:luminance" maskUnits="userSpaceOnUse" x="122" y="44" width="34" height="11">
<path d="M152.597 48.263V52.3129H150.569V48.263H147.893V52.3129H145.865V48.263H143.189V52.3129H141.152V48.263H129.636V44.2051H126.969V52.3129H124.932V44.2051H122.255V54.6184H155.275V48.263H152.598H152.597ZM138.483 52.3129H129.634V50.6023H138.483V52.3129Z" fill="white"/>
</mask>
<g mask="url(#mask59_42_3079)">
<path d="M155.275 0H0.675209V58.6346H155.275V0Z" fill="white"/>
</g>
<mask id="mask60_42_3079" style="mask-type:luminance" maskUnits="userSpaceOnUse" x="131" y="44" width="25" height="3">
<path d="M155.273 44.2002H131.701V46.5121H155.273V44.2002Z" fill="white"/>
</mask>
<g mask="url(#mask60_42_3079)">
<path d="M155.275 0H0.675217V58.6346H155.275V0Z" fill="white"/>
</g>
<mask id="mask61_42_3079" style="mask-type:luminance" maskUnits="userSpaceOnUse" x="108" y="44" width="13" height="11">
<path d="M108.139 44.2051V54.6184H110.816V46.5105H112.843V54.6184H120.226V44.2051H108.139V44.2051ZM117.549 52.3129H115.522V46.5105H117.549V52.3129Z" fill="white"/>
</mask>
<g mask="url(#mask61_42_3079)">
<path d="M155.275 0H0.675209V58.6346H155.275V0Z" fill="white"/>
</g>
<mask id="mask62_42_3079" style="mask-type:luminance" maskUnits="userSpaceOnUse" x="108" y="56" width="48" height="3">
<path d="M155.275 56.3228H108.139V58.6347H155.275V56.3228Z" fill="white"/>
</mask>
<g mask="url(#mask62_42_3079)">
<path d="M155.275 0H0.675209V58.6346H155.275V0Z" fill="white"/>
</g>
<mask id="mask63_42_3079" style="mask-type:luminance" maskUnits="userSpaceOnUse" x="108" y="0" width="48" height="42">
<path d="M110.812 23.1836C110.812 22.8031 110.838 22.4227 110.889 22.0454C111.597 16.8347 114.599 12.0593 119.269 8.70756C123.027 6.08933 127.228 3.987 131.725 2.47152C136.222 3.987 140.422 6.09094 144.181 8.70756C148.851 12.0593 151.852 16.8347 152.561 22.0454C152.613 22.4227 152.638 22.8031 152.638 23.1836V41.7305H155.312V23.0546C155.312 22.7096 155.292 22.3646 155.249 22.0228C154.522 16.1237 151.157 10.7051 145.873 6.91962C141.629 3.95798 136.849 1.62027 131.727 0C126.605 1.62027 121.824 3.95798 117.579 6.918C112.295 10.7035 108.93 16.1221 108.203 22.0212C108.16 22.3646 108.139 22.708 108.139 23.053V41.7289H110.814V23.182L110.812 23.1836Z" fill="white"/>
</mask>
<g mask="url(#mask63_42_3079)">
<path d="M155.273 0H0V58.6346H155.273V0Z" fill="white"/>
</g>
</g>
<defs>
<clipPath id="clip0_42_3079">
<rect width="155.314" height="58.6346" fill="white"/>
</clipPath>
</defs>
</svg>
